<?xml version="1.0" standalone="no"?>
<!DOCTYPE svg PUBLIC "-//W3C//DTD SVG 1.1//EN" "http://www.w3.org/Graphics/SVG/1.1/DTD/svg11.dtd" >
<svg xmlns="http://www.w3.org/2000/svg" xmlns:xlink="http://www.w3.org/1999/xlink" version="1.1">
<metadata>
Created by FontForge 20200314 at Wed May 16 17:52:32 2007
 By Unknown
Copyright 1990-1999 as an unpublished work by Bitstream Inc.  All rights reserved.  Confidential.
</metadata>
<defs>
<font id="RomanaBT-Roman" horiz-adv-x="500" >
  <font-face 
    font-family="Romana"
    font-weight="500"
    font-stretch="normal"
    units-per-em="1000"
    panose-1="0 0 0 0 0 0 0 0 0 0"
    ascent="800"
    descent="-200"
    x-height="479"
    cap-height="720"
    bbox="-167 -243 1041 965"
    underline-thickness="58"
    underline-position="-139"
    stemh="25"
    stemv="85"
    unicode-range="U+0020-FB02"
  />
<missing-glyph horiz-adv-x="275" 
 />
    <glyph glyph-name=".notdef" horiz-adv-x="275" 
 />
    <glyph glyph-name="space" unicode=" " horiz-adv-x="275" 
 />
    <glyph glyph-name="exclam" unicode="!" horiz-adv-x="275" 
d="M80 46c0 33 27 60 60 60c34 0 60 -26 60 -60c0 -33 -27 -60 -60 -60c-32 0 -60 28 -60 60zM131 177l-34 272c-9 69 -15 130 -15 183c0 70 17 104 58 104s58 -34 58 -104c0 -50 -6 -110 -15 -183l-34 -272h-18z" />
    <glyph glyph-name="quotedbl" unicode="&#x22;" horiz-adv-x="335" 
d="M95 420h-17l-34 224c-1 7 -2 14 -2 20c0 32 17 50 44 50c28 0 44 -18 44 -52c0 -7 0 -12 -1 -18zM257 420h-17l-34 224c-1 7 -1 12 -1 18c0 33 15 52 43 52c27 0 44 -18 44 -50c0 -6 0 -13 -1 -20z" />
    <glyph glyph-name="numbersign" unicode="#" horiz-adv-x="769" 
d="M371 712h76l-79 -222h135l79 222h76l-79 -222h147l-24 -68h-147l-47 -135h156l-24 -68h-156l-79 -221h-76l79 221h-136l-79 -221h-75l78 221h-153l25 68h152l48 135h-164l25 68h163zM343 422l-48 -135h138l47 135h-137z" />
    <glyph glyph-name="dollar" unicode="$" horiz-adv-x="551" 
d="M248 -69v69c-90 10 -163 38 -218 86l38 129l21 -5c24 -100 76 -160 159 -181v294c-132 39 -198 102 -198 191c0 94 75 167 198 180v61h34v-61c67 -5 132 -26 195 -65l-31 -115l-19 4c-22 83 -73 133 -145 146v-249c165 -54 238 -103 238 -215c0 -111 -92 -198 -238 -200
v-69h-34zM248 427v239c-77 -2 -127 -50 -127 -110c0 -57 42 -98 127 -129zM282 26c99 0 160 55 160 130c0 76 -50 118 -160 155v-285z" />
    <glyph glyph-name="percent" unicode="%" horiz-adv-x="731" 
d="M115 0l469 711l31 -17l-469 -710zM185 277c-85 0 -146 84 -146 219c0 130 67 215 149 215c76 0 139 -84 139 -217c0 -128 -68 -217 -142 -217zM184 296c56 0 74 65 74 200c0 131 -21 195 -76 195c-51 0 -73 -61 -73 -184c0 -141 16 -211 75 -211zM550 -16
c-85 0 -146 84 -146 219c0 130 67 215 149 215c76 0 139 -84 139 -217c0 -128 -68 -217 -142 -217zM549 3c56 0 74 65 74 200c0 131 -21 195 -76 195c-51 0 -73 -61 -73 -184c0 -141 16 -211 75 -211z" />
    <glyph glyph-name="ampersand" unicode="&#x26;" horiz-adv-x="678" 
d="M471 0l-49 90c-51 -62 -111 -92 -180 -92c-110 0 -196 93 -196 202c0 105 71 196 204 255c-12 37 -18 68 -18 93c0 106 70 177 170 177c80 0 140 -46 140 -94c0 -27 -19 -46 -48 -46c-28 0 -47 17 -62 53c-14 34 -23 54 -62 54c-34 0 -63 -31 -63 -79
c0 -59 56 -195 164 -412c35 81 48 142 48 172c0 37 -18 65 -46 74v18h160v-18c-64 -21 -79 -121 -143 -274l39 -67c28 -47 53 -77 99 -87v-19h-157zM409 114c-51 100 -102 205 -149 317c-87 -38 -131 -96 -131 -175c0 -45 18 -94 48 -131c36 -44 76 -65 123 -65
c44 0 80 18 109 54z" />
    <glyph glyph-name="quoteright" unicode="&#x2019;" horiz-adv-x="275" 
d="M73 473c46 51 66 92 66 116s-9 31 -23 41c-21 15 -32 30 -32 52c0 32 23 54 56 54c37 0 68 -33 68 -80c0 -54 -38 -125 -116 -203z" />
    <glyph glyph-name="parenleft" unicode="(" horiz-adv-x="366" 
d="M353 -236c-188 117 -291 293 -291 486s103 369 291 486v-29c-123 -93 -184 -244 -184 -457s61 -364 184 -457v-29z" />
    <glyph glyph-name="parenright" unicode=")" horiz-adv-x="366" 
d="M13 736c188 -117 291 -293 291 -486s-103 -369 -291 -486v29c123 93 183 244 183 457s-60 364 -183 457v29z" />
    <glyph glyph-name="asterisk" unicode="*" 
d="M257 520v-7c0 -64 37 -103 37 -140c0 -23 -16 -43 -44 -43c-29 0 -45 17 -45 43c0 34 37 70 37 136v12c-42 -25 -57 -46 -67 -60c-22 -30 -37 -52 -65 -52c-23 0 -43 20 -43 45c0 32 24 46 73 50c41 3 72 11 94 30c-39 28 -76 27 -112 30c-35 3 -55 24 -55 49
c0 24 18 45 42 45c32 0 45 -25 65 -52c18 -25 40 -45 69 -60v5c0 68 -38 109 -38 141c0 26 17 44 45 44c29 0 44 -16 44 -43c0 -34 -36 -72 -36 -138v-10c23 15 44 28 67 60c21 29 36 53 67 53c21 0 41 -24 41 -46c0 -24 -23 -45 -50 -47c-46 -4 -85 -7 -117 -33
c42 -27 79 -27 112 -30c34 -3 55 -23 55 -51c0 -22 -22 -43 -44 -43c-29 0 -44 25 -64 53c-18 26 -39 45 -68 59z" />
    <glyph glyph-name="plus" unicode="+" horiz-adv-x="833" 
d="M382 596h69v-264h258v-68h-258v-264h-69v264h-258v68h258v264z" />
    <glyph glyph-name="comma" unicode="," horiz-adv-x="275" 
d="M61 -157c43 45 64 86 64 120c0 40 -49 42 -49 89c0 32 23 54 56 54c37 0 68 -33 68 -80c0 -54 -40 -124 -122 -202z" />
    <glyph glyph-name="hyphen" unicode="-" horiz-adv-x="338" 
d="M30 209v70h278v-70h-278z" />
    <glyph glyph-name="period" unicode="." horiz-adv-x="275" 
d="M80 46c0 33 27 60 60 60c34 0 60 -26 60 -60c0 -33 -27 -60 -60 -60c-32 0 -60 28 -60 60z" />
    <glyph glyph-name="slash" unicode="/" horiz-adv-x="375" 
d="M-66 -74l432 810l35 -18l-432 -811z" />
    <glyph glyph-name="zero" unicode="0" horiz-adv-x="551" 
d="M278 -16c-139 0 -239 139 -239 368c0 219 110 359 245 359c124 0 228 -140 228 -363c0 -121 -35 -224 -100 -299c-37 -42 -85 -65 -134 -65zM278 9c97 0 127 112 127 343c0 224 -36 333 -128 333c-95 0 -131 -104 -131 -315c0 -244 28 -361 132 -361z" />
    <glyph glyph-name="one" unicode="1" horiz-adv-x="551" 
d="M176 0v19c34 1 47 28 47 88v435c0 48 -22 69 -71 70v19c47 11 94 38 142 80h23v-604c0 -60 12 -87 47 -88v-19h-188z" />
    <glyph glyph-name="two" unicode="2" horiz-adv-x="551" 
d="M27 0v19l24 36c78 118 158 183 207 233c72 74 107 141 107 231c0 106 -45 166 -108 166c-59 0 -82 -29 -86 -93c-4 -55 -25 -83 -61 -83c-28 0 -47 22 -47 53c0 74 87 149 196 149c123 0 212 -86 212 -207c0 -50 -17 -92 -49 -135c-31 -41 -83 -76 -145 -121
c-76 -55 -136 -107 -177 -167h212c71 0 109 15 130 70l19 -4l-35 -147h-399z" />
    <glyph glyph-name="three" unicode="3" horiz-adv-x="551" 
d="M221 378c97 15 137 59 137 156c0 98 -37 150 -102 150c-57 0 -77 -30 -84 -88c-5 -42 -24 -63 -50 -63c-28 0 -49 22 -49 52c0 62 80 126 190 126c114 0 199 -77 199 -170c0 -67 -46 -120 -137 -155c103 -23 162 -94 162 -179c0 -128 -99 -223 -234 -223
c-121 0 -203 67 -203 127c0 29 20 49 43 49c32 0 50 -18 65 -54c26 -60 43 -95 104 -95c75 0 119 64 119 182c0 106 -41 165 -114 165c-15 0 -30 -1 -45 -4z" />
    <glyph glyph-name="four" unicode="4" horiz-adv-x="551" 
d="M269 0v19c38 9 42 44 42 112v38h-281v28l306 511h70v-477h102v-62h-102v-38c0 -68 2 -103 41 -112v-19h-178zM311 231l2 375l-220 -375h218z" />
    <glyph glyph-name="five" unicode="5" horiz-adv-x="551" 
d="M99 320l11 374c39 -13 91 -20 150 -20c69 0 126 13 165 37l13 -11c-45 -70 -126 -109 -229 -109c-23 0 -47 1 -71 4l-5 -208c35 56 89 86 152 86c117 0 204 -96 204 -226c0 -156 -107 -263 -251 -263c-107 0 -180 62 -180 119c0 28 18 48 44 48c30 0 49 -20 69 -59
c24 -46 40 -78 100 -78c70 0 118 68 118 189c0 133 -61 219 -141 219c-58 0 -103 -37 -122 -105z" />
    <glyph glyph-name="six" unicode="6" horiz-adv-x="551" 
d="M386 231c0 136 -32 203 -104 203c-77 0 -118 -66 -118 -197c0 -152 35 -228 115 -228c76 0 107 73 107 222zM159 368c29 64 76 96 142 96c102 0 192 -96 192 -227c0 -66 -20 -124 -56 -169c-44 -55 -102 -84 -160 -84c-130 0 -219 120 -219 325c0 257 107 402 256 402
c90 0 151 -46 151 -96c0 -24 -21 -42 -43 -42c-20 0 -39 11 -55 35c-23 34 -34 71 -88 71c-77 0 -115 -103 -120 -311z" />
    <glyph glyph-name="seven" unicode="7" horiz-adv-x="551" 
d="M193 -16c19 225 102 428 250 629h-198c-88 0 -129 -7 -145 -81l-20 1l14 161h414v-25c-134 -197 -198 -419 -203 -685h-112z" />
    <glyph glyph-name="eight" unicode="8" horiz-adv-x="551" 
d="M200 357c-79 38 -121 100 -121 171c0 104 85 183 200 183c112 0 191 -74 191 -155c0 -69 -42 -121 -128 -159c107 -51 160 -116 160 -200c0 -122 -99 -213 -226 -213c-136 0 -228 88 -228 191c0 74 51 135 152 182zM227 344c-64 -29 -97 -86 -97 -163
c0 -105 60 -171 148 -171c82 0 134 55 134 140s-61 147 -185 194zM316 408c56 27 84 74 84 141c0 84 -49 136 -126 136c-70 0 -114 -43 -114 -110c0 -66 53 -124 156 -167z" />
    <glyph glyph-name="nine" unicode="9" horiz-adv-x="551" 
d="M391 319c-30 -60 -78 -92 -139 -92c-109 0 -196 93 -196 232c0 68 21 128 59 172c44 52 99 80 149 80c136 0 230 -130 230 -353c0 -236 -104 -374 -251 -374c-93 0 -154 45 -154 92c0 25 20 44 45 44c40 0 56 -32 82 -70c15 -22 37 -34 64 -34c80 0 110 99 111 303z
M162 478c0 -146 36 -218 109 -218c71 0 118 65 118 191c0 157 -39 234 -121 234c-75 0 -106 -67 -106 -207z" />
    <glyph glyph-name="colon" unicode=":" horiz-adv-x="275" 
d="M80 407c0 33 27 61 60 61c34 0 60 -27 60 -61c0 -33 -27 -60 -60 -60c-32 0 -60 28 -60 60zM80 46c0 33 27 60 60 60c34 0 60 -26 60 -60c0 -33 -27 -60 -60 -60c-32 0 -60 28 -60 60z" />
    <glyph glyph-name="semicolon" unicode=";" horiz-adv-x="275" 
d="M61 -157c43 45 64 86 64 120c0 40 -49 42 -49 89c0 32 23 54 56 54c37 0 68 -33 68 -80c0 -54 -40 -124 -122 -202zM80 407c0 33 27 61 60 61c34 0 60 -27 60 -61c0 -33 -27 -60 -60 -60c-32 0 -60 28 -60 60z" />
    <glyph glyph-name="less" unicode="&#x3c;" horiz-adv-x="833" 
d="M704 566v-75l-473 -193l473 -192v-75l-575 236v63z" />
    <glyph glyph-name="equal" unicode="=" horiz-adv-x="833" 
d="M124 429h585v-68h-585v68zM124 235h585v-68h-585v68z" />
    <glyph glyph-name="greater" unicode="&#x3e;" horiz-adv-x="833" 
d="M129 566l575 -236v-63l-575 -236v75l474 192l-474 193v75z" />
    <glyph glyph-name="question" unicode="?" horiz-adv-x="444" 
d="M85 46c0 33 27 60 60 60c34 0 61 -26 61 -60c0 -33 -28 -60 -61 -60c-32 0 -60 28 -60 60zM133 177l-2 208c11 0 19 -1 21 -1c119 0 182 61 182 173c0 94 -57 153 -133 153c-52 0 -82 -28 -85 -81c-2 -51 -18 -77 -56 -77c-26 0 -45 21 -45 52c0 65 77 132 186 132
c117 0 211 -98 211 -218c0 -143 -90 -233 -241 -235l-6 -106h-32z" />
    <glyph glyph-name="at" unicode="@" horiz-adv-x="986" 
d="M539 469c-37 0 -64 -21 -92 -63c-49 -74 -76 -163 -76 -226c0 -58 30 -93 69 -93c42 0 79 28 114 86c39 65 60 144 60 196c0 61 -31 100 -75 100zM579 162c-40 -68 -89 -101 -150 -101c-84 0 -138 65 -138 165c0 70 33 143 93 201c45 43 98 65 147 65
c58 0 95 -32 108 -93l25 85h77l-84 -299c-4 -15 -9 -31 -9 -48c0 -33 16 -52 44 -52c19 0 53 12 83 35c77 59 117 150 117 267c0 87 -34 160 -102 218c-58 50 -141 78 -235 78c-117 0 -220 -41 -298 -118c-82 -81 -124 -188 -124 -315c0 -116 34 -199 115 -267
c70 -59 167 -93 274 -93c110 0 212 33 306 101l16 -20c-96 -72 -205 -108 -321 -108c-124 0 -226 30 -303 88c-98 74 -151 183 -151 311c0 132 57 250 165 339c87 72 192 109 311 109c226 0 373 -134 373 -336c0 -104 -40 -198 -110 -261c-39 -35 -84 -53 -127 -53
c-62 0 -97 35 -102 102z" />
    <glyph glyph-name="A" unicode="A" horiz-adv-x="606" 
d="M-23 0v19c59 20 85 75 114 165l180 552h63l199 -614c22 -68 43 -102 69 -103v-19h-195v19c23 5 35 20 35 37c0 13 -6 29 -12 49l-40 129h-246l-31 -96c-6 -20 -9 -38 -9 -52c0 -37 17 -61 49 -67v-19h-176zM156 269h224l-108 356z" />
    <glyph glyph-name="B" unicode="B" horiz-adv-x="639" 
d="M185 400h64c154 0 228 35 228 145c0 96 -65 151 -183 151c-95 0 -109 -17 -109 -83v-213zM185 370v-264c0 -67 11 -76 104 -76c143 0 211 52 211 169c0 116 -66 171 -201 171h-114zM37 0v19c34 1 46 28 46 88v505c0 60 -11 88 -46 89v19l157 4c52 1 82 2 90 2
c182 0 293 -81 293 -180c0 -76 -62 -132 -182 -160c134 -25 209 -103 209 -197c0 -121 -103 -189 -301 -189h-266z" />
    <glyph glyph-name="C" unicode="C" horiz-adv-x="671" 
d="M646 162c-74 -121 -165 -178 -290 -178c-192 0 -321 138 -321 355c0 135 45 247 132 326c48 44 122 71 202 71c78 0 159 -29 245 -85l-38 -121l-23 3c-36 113 -108 173 -206 173c-124 0 -213 -117 -213 -308c0 -215 115 -357 266 -357c90 0 164 44 228 134z" />
    <glyph glyph-name="D" unicode="D" horiz-adv-x="725" 
d="M37 0v19c34 1 46 28 46 88v505c0 60 -11 88 -46 89v19l160 5c35 1 62 1 81 1c86 0 156 -7 220 -40c114 -58 187 -185 187 -336c0 -216 -139 -350 -382 -350h-266zM185 95c0 -58 25 -65 93 -65c214 0 296 84 296 324c0 229 -83 341 -255 341c-104 0 -134 -13 -134 -83
v-517z" />
    <glyph glyph-name="E" unicode="E" horiz-adv-x="613" 
d="M37 0v19c34 1 46 28 46 88v505c0 60 -11 88 -46 89v19h503l12 -140l-21 -3c-38 102 -105 108 -239 108h-31c-68 0 -76 -3 -76 -56v-205h104c94 0 142 10 162 69h17v-171h-18c-22 65 -66 67 -147 67h-118v-285c0 -63 8 -70 97 -70c68 0 125 0 172 15c46 15 84 51 125 108
l21 -11l-42 -146h-521z" />
    <glyph glyph-name="F" unicode="F" horiz-adv-x="569" 
d="M37 0v19c34 1 46 28 46 88v505c0 60 -11 88 -46 89v19h497l13 -138l-18 -4c-39 97 -103 107 -223 107c-68 0 -107 -5 -115 -13c-5 -5 -6 -13 -6 -23v-225h108c98 0 145 12 161 74h17v-174h-17c-23 63 -68 65 -146 65h-123v-282c0 -60 11 -87 46 -88v-19h-194z" />
    <glyph glyph-name="G" unicode="G" horiz-adv-x="734" 
d="M514 423v16h186v-16c-24 0 -41 -24 -41 -58v-216c0 -37 16 -60 43 -61v-13c-120 -60 -228 -91 -330 -91c-105 0 -186 38 -255 119c-51 59 -82 147 -82 244c0 117 43 220 125 297c62 58 151 92 249 92c77 0 160 -27 248 -83l-28 -121l-17 1c-49 111 -136 171 -234 171
c-149 0 -232 -118 -232 -343c0 -230 85 -349 243 -349c104 0 172 47 172 119v219c0 43 -17 69 -47 73z" />
    <glyph glyph-name="H" unicode="H" horiz-adv-x="697" 
d="M37 0v19c34 1 46 28 46 88v505c0 60 -11 88 -46 89v19h194v-19c-35 -1 -46 -29 -46 -89v-198h327v198c0 60 -12 88 -47 89v19h195v-19c-35 -1 -47 -29 -47 -89v-505c0 -32 3 -54 14 -71c7 -11 18 -16 33 -17v-19h-195v19c34 1 47 28 47 88v273h-327v-273
c0 -60 11 -87 46 -88v-19h-194z" />
    <glyph glyph-name="I" unicode="I" horiz-adv-x="280" 
d="M42 0v19c34 1 46 28 46 88v505c0 60 -12 88 -46 89v19h196v-19c-35 -1 -46 -29 -46 -89v-505c0 -60 11 -87 46 -88v-19h-196z" />
    <glyph glyph-name="J" unicode="J" horiz-adv-x="285" 
d="M199 34v-26c0 -79 -2 -142 -52 -197c-32 -36 -76 -54 -133 -54c-56 0 -89 25 -89 63c0 28 22 55 54 55c26 0 38 -19 55 -48c12 -20 16 -33 34 -33c26 0 27 20 27 66v752c0 32 -3 56 -13 72c-7 11 -18 16 -33 17v19h196v-19c-35 -1 -46 -29 -46 -89v-578z" />
    <glyph glyph-name="K" unicode="K" horiz-adv-x="641" 
d="M37 0v19c34 1 46 28 46 88v505c0 60 -11 88 -46 89v19h194v-19c-35 -1 -46 -29 -46 -89v-313l140 155c96 106 152 168 152 205c0 25 -12 39 -38 42v19h201v-19c-50 -10 -99 -63 -174 -145l-109 -119l171 -284c48 -80 72 -129 113 -134v-19h-210v19c18 0 31 12 31 32
s-17 50 -45 96l-129 216l-103 -111v-145c0 -60 11 -87 46 -88v-19h-194z" />
    <glyph glyph-name="L" unicode="L" horiz-adv-x="574" 
d="M42 0v19c34 1 46 28 46 88v505c0 60 -12 88 -46 89v19h196v-19c-35 -1 -46 -29 -46 -89v-508c0 -58 6 -69 82 -69c70 0 128 1 181 31c25 14 54 44 88 92l22 -7l-37 -151h-486z" />
    <glyph glyph-name="M" unicode="M" horiz-adv-x="822" 
d="M-12 0v19c42 10 71 57 84 143l64 431c0 2 1 14 1 36c0 39 -11 59 -45 72v19h159l167 -577l156 577h150v-19c-26 -3 -42 -22 -42 -52c0 -11 1 -23 3 -34l70 -491c9 -64 29 -99 55 -105v-19h-194v19c27 2 44 23 44 54c0 3 0 11 -2 25l-75 526l-170 -632h-50l-188 632
l-66 -455c-4 -25 -5 -43 -5 -54c0 -57 21 -89 61 -96v-19h-177z" />
    <glyph glyph-name="N" unicode="N" horiz-adv-x="681" 
d="M74 147v459c0 62 -18 92 -60 95v19h152l403 -565v355c0 119 -14 180 -74 191v19h161v-19c-50 -30 -52 -87 -52 -184v-525h-41l-454 636v-473c0 -81 24 -127 70 -136v-19h-173v19c48 18 68 57 68 128z" />
    <glyph glyph-name="O" unicode="O" horiz-adv-x="718" 
d="M358 -16c-86 0 -152 25 -211 81c-71 68 -112 172 -112 294c0 118 39 214 122 294c55 54 129 83 206 83c74 0 146 -28 192 -71c83 -79 128 -185 128 -301c0 -106 -37 -205 -108 -284c-57 -64 -131 -96 -217 -96zM359 12c147 0 208 118 208 361c0 224 -69 336 -208 336
c-131 0 -209 -123 -209 -352c0 -232 68 -345 209 -345z" />
    <glyph glyph-name="P" unicode="P" horiz-adv-x="613" 
d="M37 0v19c34 1 46 28 46 88v505c0 60 -11 88 -46 89v19l123 7c56 3 92 4 106 4c220 0 338 -83 338 -208c0 -127 -108 -203 -312 -203c-38 0 -74 3 -107 8v-221c0 -60 11 -87 46 -88v-19h-194zM185 356c26 -5 54 -7 83 -7c156 0 232 58 232 176c0 113 -72 178 -204 178
c-96 0 -111 -21 -111 -73v-274z" />
    <glyph glyph-name="Q" unicode="Q" horiz-adv-x="718" 
d="M502 20c40 -64 71 -95 123 -95c25 0 45 9 61 29l10 -13c-33 -51 -81 -78 -129 -78c-63 0 -113 43 -153 127c-16 -4 -35 -6 -56 -6c-86 0 -153 25 -211 81c-71 68 -112 171 -112 294c0 118 39 213 122 294c55 54 129 83 206 83c74 0 146 -28 192 -71
c83 -78 128 -185 128 -301c0 -142 -66 -268 -181 -344zM479 52c67 49 93 153 93 321c0 224 -70 336 -213 336c-135 0 -213 -122 -213 -352c0 -233 67 -345 212 -345c15 0 29 1 41 5c-35 75 -78 113 -116 113c-13 0 -25 -4 -37 -13l-11 14c31 23 57 35 90 35
c56 0 112 -39 154 -114z" />
    <glyph glyph-name="R" unicode="R" horiz-adv-x="637" 
d="M37 0v19c34 1 46 28 46 88v505c0 60 -11 88 -46 89v19l163 8c48 2 79 3 94 3c201 0 317 -87 317 -207c0 -89 -72 -162 -199 -185c71 -205 144 -338 216 -400v-21c-138 58 -254 199 -330 413c-15 0 -31 -1 -46 -1c-22 0 -44 1 -67 2v-225c0 -60 11 -87 46 -88v-19h-194z
M185 363c21 -4 46 -5 75 -5c162 0 240 53 240 169c0 111 -71 177 -200 177c-91 0 -115 -22 -115 -83v-258z" />
    <glyph glyph-name="S" unicode="S" horiz-adv-x="567" 
d="M35 77l39 139l22 -4c29 -129 105 -199 206 -199c93 0 154 58 154 140c0 94 -60 128 -176 174c-65 26 -123 44 -164 87c-34 36 -52 79 -52 127c0 110 91 195 217 195c68 0 141 -24 216 -71l-32 -124l-20 4c-27 103 -93 160 -174 160c-85 0 -136 -49 -136 -118
c0 -76 54 -109 154 -150c83 -34 150 -58 191 -98c37 -36 54 -81 54 -138c0 -123 -98 -217 -243 -217c-94 0 -184 32 -256 93z" />
    <glyph glyph-name="T" unicode="T" horiz-adv-x="620" 
d="M212 0v19c34 1 46 28 46 88v549c0 25 -5 29 -27 29c-99 0 -154 -20 -209 -119l-22 9l38 145h544l38 -145l-22 -9c-55 99 -109 119 -208 119c-22 0 -28 -4 -28 -29v-549c0 -60 12 -87 47 -88v-19h-197z" />
    <glyph glyph-name="U" unicode="U" horiz-adv-x="697" 
d="M88 612c0 60 -12 88 -46 89v19h196v-19c-35 -1 -46 -29 -46 -89v-357c0 -162 46 -228 187 -228c61 0 106 12 142 41c57 46 62 122 62 240v238c0 97 -21 147 -70 155v19h169v-19c-52 -16 -64 -66 -64 -160v-234c0 -107 -6 -184 -45 -235c-46 -60 -119 -88 -223 -88
c-98 0 -174 31 -218 86c-41 51 -44 117 -44 205v337z" />
    <glyph glyph-name="V" unicode="V" horiz-adv-x="600" 
d="M269 -16l-213 622c-18 54 -37 85 -65 95v19h193v-19c-22 -4 -34 -17 -34 -38c0 -9 3 -21 8 -37l174 -520l150 481c4 14 6 29 6 43c0 34 -22 67 -48 71v19h169v-19c-49 -21 -76 -65 -99 -139l-180 -578h-61z" />
    <glyph glyph-name="W" unicode="W" horiz-adv-x="937" 
d="M287 -8l-221 614c-20 55 -46 87 -71 95v19h194v-19c-22 -4 -34 -17 -34 -38c0 -8 2 -21 8 -37l179 -503l106 371l-27 90c-23 77 -37 116 -77 117v19h199v-19c-24 -1 -38 -17 -38 -44c0 -7 2 -17 6 -32l147 -502l61 174c58 167 92 276 92 332c0 43 -19 69 -49 72v19h180
v-19c-47 -7 -73 -75 -116 -198l-124 -360c-10 -30 -26 -81 -46 -151h-59l-131 442l-82 -289c-12 -41 -24 -92 -38 -153h-59z" />
    <glyph glyph-name="X" unicode="X" horiz-adv-x="641" 
d="M0 0v19c34 8 96 65 165 173l104 163l-157 240c-45 69 -80 104 -101 106v19h215v-19c-19 0 -31 -14 -31 -30c0 -17 12 -33 27 -56l119 -186l78 125c23 37 33 69 33 92c0 33 -17 54 -46 55v19h198v-19c-46 -17 -86 -59 -129 -126l-113 -176l207 -312c28 -42 48 -65 72 -68
v-19h-220v19c25 4 37 16 37 36c0 13 -12 32 -31 61l-137 210l-91 -154c-25 -43 -40 -76 -40 -103c0 -26 12 -44 35 -50v-19h-194z" />
    <glyph glyph-name="Y" unicode="Y" horiz-adv-x="616" 
d="M207 0v19c34 1 47 28 47 88v183l-167 302c-37 66 -58 106 -92 110v18h202v-18c-21 -2 -32 -11 -32 -28c0 -13 12 -41 36 -84l138 -252l119 218c21 39 30 74 30 95c0 27 -20 50 -46 51v18h178v-18c-44 -5 -69 -49 -109 -121l-155 -283v-191c0 -60 11 -87 46 -88v-19h-195z
" />
    <glyph glyph-name="Z" unicode="Z" horiz-adv-x="602" 
d="M0 0v16l441 669h-93c-71 0 -129 -1 -181 -31c-24 -14 -54 -45 -89 -93l-20 7l30 152h495l-452 -685h173c117 0 188 35 250 136l24 -8l-41 -163h-537z" />
    <glyph glyph-name="bracketleft" unicode="[" horiz-adv-x="377" 
d="M144 -220v940h222v-28c-22 2 -36 3 -44 3c-87 0 -93 -33 -93 -106v-678c0 -73 6 -106 93 -106c8 0 22 1 44 3v-28h-222z" />
    <glyph glyph-name="backslash" unicode="\" horiz-adv-x="375" 
d="M406 -93l-432 811l35 18l432 -810z" />
    <glyph glyph-name="bracketright" unicode="]" horiz-adv-x="377" 
d="M234 720v-940h-222v28c22 -2 36 -3 44 -3c87 0 92 33 92 106v678c0 73 -5 106 -92 106c-8 0 -22 -1 -44 -3v28h222z" />
    <glyph glyph-name="asciicircum" unicode="^" horiz-adv-x="1000" 
d="M452 714h95l250 -276h-48l-250 205l-251 -205h-47z" />
    <glyph glyph-name="underscore" unicode="_" 
d="M0 -166h500v-70h-500v70z" />
    <glyph glyph-name="quoteleft" unicode="&#x2018;" horiz-adv-x="275" 
d="M202 717c-46 -51 -66 -93 -66 -117c0 -25 10 -30 24 -40c21 -15 32 -30 32 -52c0 -32 -24 -55 -57 -55c-37 0 -68 33 -68 80c0 54 38 125 116 203z" />
    <glyph glyph-name="a" unicode="a" horiz-adv-x="442" 
d="M434 36c-24 -33 -53 -50 -84 -50c-42 0 -63 23 -63 70v3c-55 -49 -109 -73 -156 -73c-66 0 -106 42 -106 107c0 94 86 143 262 214v72c0 60 -21 89 -62 89c-48 0 -59 -29 -73 -77c-8 -28 -30 -47 -55 -47s-45 20 -45 47c0 51 68 102 174 102s146 -41 146 -134v-287
c0 -29 6 -44 22 -44c11 0 19 6 26 19zM287 280c-117 -49 -174 -89 -174 -159c0 -53 31 -87 72 -87c30 0 68 22 102 64v182z" />
    <glyph glyph-name="b" unicode="b" horiz-adv-x="495" 
d="M29 44c24 16 36 51 36 105v446c0 41 -9 58 -40 61v15c42 11 79 33 109 65h16v-331c42 59 91 88 147 88c99 0 164 -84 164 -225c0 -175 -90 -282 -202 -282c-88 0 -149 54 -192 54c-9 0 -19 -3 -30 -9zM150 367v-216c0 -90 41 -139 109 -139c70 0 113 68 113 201
c0 149 -38 224 -116 224c-40 0 -77 -24 -106 -70z" />
    <glyph glyph-name="c" unicode="c" horiz-adv-x="417" 
d="M385 104l15 -11c-50 -70 -114 -107 -176 -107c-114 0 -194 92 -194 242c0 157 89 265 217 265c81 0 145 -54 145 -106c0 -27 -17 -46 -43 -46c-43 0 -47 29 -56 65c-10 40 -32 60 -68 60c-68 0 -109 -67 -109 -194c0 -144 62 -229 148 -229c45 0 86 20 121 61z" />
    <glyph glyph-name="d" unicode="d" horiz-adv-x="502" 
d="M350 65c-40 -52 -91 -79 -147 -79c-99 0 -168 86 -168 229c0 170 82 278 198 278c50 0 91 -21 117 -58v160c0 41 -9 58 -40 61v15c42 11 79 33 109 65h16v-653c0 -43 9 -63 37 -64v-19h-122v65zM350 108v182c0 115 -46 178 -120 178c-68 0 -107 -70 -107 -204
c0 -150 48 -229 120 -229c39 0 79 25 107 73z" />
    <glyph glyph-name="e" unicode="e" horiz-adv-x="440" 
d="M394 105l19 -12c-47 -71 -108 -107 -178 -107c-117 0 -205 98 -205 245c0 164 77 262 194 262c102 0 169 -81 176 -227h-283c3 -144 66 -225 158 -225c46 0 86 21 119 64zM117 297h146c40 0 52 1 52 23c0 95 -35 148 -96 148c-67 0 -102 -55 -102 -166v-5z" />
    <glyph glyph-name="f" unicode="f" horiz-adv-x="255" 
d="M37 0v19c27 1 37 21 37 64v364h-62v32h62c-2 53 -8 94 -8 121c0 87 46 136 112 136c48 0 82 -29 82 -64c0 -24 -17 -41 -38 -41c-33 0 -40 18 -50 44c-7 17 -12 24 -28 24c-13 0 -25 -12 -25 -28c0 -33 43 -94 43 -189v-3h95v-32h-95v-364c0 -43 9 -63 37 -64v-19h-162z
" />
    <glyph glyph-name="g" unicode="g" horiz-adv-x="477" 
d="M113 0c-55 15 -85 42 -85 76c0 37 32 68 95 101c-57 32 -86 82 -86 141c0 94 80 175 193 175c51 0 92 -18 126 -56c43 38 73 59 96 59s43 -21 43 -42c0 -22 -18 -38 -43 -38c-16 0 -31 8 -49 21h-1c-6 0 -14 -6 -28 -19c17 -24 26 -53 26 -87c0 -99 -81 -174 -192 -174
c-22 0 -43 4 -63 11c-36 -22 -54 -39 -54 -59c0 -23 25 -32 79 -41c120 -21 198 -32 229 -51c41 -25 60 -56 60 -101c0 -79 -81 -136 -228 -136c-144 0 -219 42 -219 106c0 44 33 78 101 114zM126 320c0 -96 29 -142 90 -142s95 49 95 143c0 100 -31 151 -91 151
c-65 0 -94 -50 -94 -152zM142 -6c-38 -21 -57 -52 -57 -92c0 -57 51 -96 135 -96c111 0 168 33 168 90c0 62 -77 74 -246 98z" />
    <glyph glyph-name="h" unicode="h" horiz-adv-x="475" 
d="M32 0v19c27 1 37 21 37 64v512c0 41 -8 58 -39 61v15c42 11 79 33 109 65h16v-333c83 53 137 90 183 90c43 0 72 -33 72 -93v-317c0 -43 9 -63 37 -64v-19h-160v19c28 1 37 21 37 64v274c0 48 -9 67 -45 67c-26 0 -68 -17 -124 -49v-292c0 -43 9 -63 37 -64v-19h-160z
" />
    <glyph glyph-name="i" unicode="i" horiz-adv-x="231" 
d="M117 593c-32 0 -60 28 -60 60s27 60 60 60c34 0 60 -26 60 -60c0 -33 -27 -60 -60 -60zM37 0v19c27 1 37 21 37 64v287c0 41 -8 59 -39 62v15c42 11 78 33 109 65h18v-429c0 -43 9 -63 37 -64v-19h-162z" />
    <glyph glyph-name="j" unicode="j" horiz-adv-x="231" 
d="M117 593c-32 0 -60 28 -60 60s27 60 60 60c34 0 60 -26 60 -60c0 -33 -27 -60 -60 -60zM74 14v356c0 41 -8 59 -39 62v15c42 11 78 33 109 65h18v-498c0 -49 7 -87 7 -120c0 -69 -43 -114 -105 -114c-43 0 -73 28 -73 63c0 25 17 42 37 42c43 0 42 -63 65 -63
c9 0 13 9 13 27c0 20 -9 42 -19 70c-12 31 -13 54 -13 74v21z" />
    <glyph glyph-name="k" unicode="k" horiz-adv-x="463" 
d="M32 0v19c27 1 37 21 37 64v512c0 41 -8 58 -39 61v15c42 11 79 33 109 65h16v-524l100 113c39 44 59 76 59 99c0 19 -11 34 -27 37v18h167v-18c-22 -4 -52 -25 -86 -61l-100 -107l119 -193c31 -51 51 -80 74 -81v-19h-173v19c17 0 25 6 25 19c0 9 -5 23 -16 42l-90 150
l-52 -55v-92c0 -43 9 -63 37 -64v-19h-160z" />
    <glyph glyph-name="l" unicode="l" horiz-adv-x="227" 
d="M32 0v19c27 1 37 21 37 64v512c0 41 -8 58 -39 61v15c42 11 79 33 109 65h18v-653c0 -43 9 -63 37 -64v-19h-162z" />
    <glyph glyph-name="m" unicode="m" horiz-adv-x="729" 
d="M32 0v19c27 1 37 21 37 64v269c0 41 -8 58 -39 61v15c42 11 79 33 109 65h16v-90c83 53 137 90 183 90s72 -27 72 -76v-14c83 53 137 90 183 90c43 0 71 -33 71 -93v-317c0 -43 9 -63 37 -64v-19h-159v19c28 1 37 21 37 64v274c0 48 -10 67 -46 67
c-25 0 -66 -16 -123 -49v-292c0 -43 9 -63 37 -64v-19h-160v19c28 1 37 21 37 64v274c0 48 -9 67 -45 67c-26 0 -68 -17 -124 -49v-292c0 -43 9 -63 37 -64v-19h-160z" />
    <glyph glyph-name="n" unicode="n" horiz-adv-x="475" 
d="M32 0v19c27 1 37 21 37 64v269c0 41 -8 58 -39 61v15c42 11 79 33 109 65h16v-90c83 53 137 90 183 90c43 0 72 -33 72 -93v-317c0 -43 9 -63 37 -64v-19h-160v19c28 1 37 21 37 64v274c0 48 -9 67 -45 67c-26 0 -68 -17 -124 -49v-292c0 -43 9 -63 37 -64v-19h-160z" />
    <glyph glyph-name="o" unicode="o" horiz-adv-x="484" 
d="M242 -14c-119 0 -212 101 -212 254s92 253 212 253s212 -100 212 -253s-93 -254 -212 -254zM242 12c75 0 112 74 112 225c0 154 -35 231 -112 231c-75 0 -112 -76 -112 -226c0 -154 36 -230 112 -230z" />
    <glyph glyph-name="p" unicode="p" 
d="M28 -220v19c27 1 37 21 37 64v489c0 41 -9 58 -40 61v15c42 11 79 33 109 65h16v-90c43 60 93 90 153 90c93 0 162 -87 162 -240c0 -163 -90 -267 -192 -267c-48 0 -88 19 -123 59v-182c0 -43 9 -63 37 -64v-19h-159zM150 368v-163c0 -126 41 -192 110 -192
c78 0 115 73 115 218c0 132 -45 204 -119 204c-38 0 -74 -22 -106 -67z" />
    <glyph glyph-name="q" unicode="q" horiz-adv-x="493" 
d="M310 -220v19c27 1 37 21 37 64v203c-42 -53 -92 -80 -143 -80c-101 0 -170 84 -170 226c0 170 93 281 219 281c41 0 81 -15 123 -47l41 47h16v-630c0 -43 9 -63 37 -64v-19h-160zM347 107v205c0 101 -37 155 -105 155c-79 0 -118 -71 -118 -210c0 -144 42 -218 119 -218
c39 0 74 23 104 68z" />
    <glyph glyph-name="r" unicode="r" horiz-adv-x="352" 
d="M37 0v19c27 1 37 21 37 64v269c0 41 -8 58 -39 61v15c42 11 79 33 109 65h18v-96c53 63 95 96 130 96c31 0 50 -22 50 -57c0 -31 -24 -55 -56 -55c-23 0 -40 16 -67 16c-19 0 -38 -14 -57 -39v-275c0 -43 9 -63 37 -64v-19h-162z" />
    <glyph glyph-name="s" unicode="s" horiz-adv-x="400" 
d="M30 52l33 98l17 -4c18 -84 73 -134 136 -134c50 0 86 37 86 82c0 52 -40 72 -111 105c-91 43 -144 67 -144 151c0 86 62 143 155 143c46 0 93 -18 140 -54l-31 -88l-16 4c-16 73 -56 112 -107 112c-46 0 -82 -33 -82 -76s34 -67 101 -96c97 -43 163 -68 163 -159
c0 -88 -66 -150 -170 -150c-53 0 -112 22 -170 66z" />
    <glyph glyph-name="t" unicode="t" horiz-adv-x="285" 
d="M83 447h-62v22c67 47 101 116 120 214h28v-204h86v-32h-84v-329c0 -47 9 -70 36 -70c14 0 27 6 38 17l14 -12c-21 -43 -58 -67 -100 -67c-52 0 -76 31 -76 96v365z" />
    <glyph glyph-name="u" unicode="u" horiz-adv-x="470" 
d="M319 0v77c-83 -56 -137 -91 -182 -91c-43 0 -72 34 -72 94v290c0 41 -9 59 -40 62v15c41 11 78 33 109 65h16v-388c0 -45 11 -64 47 -64c28 0 70 15 122 46v247c0 47 -6 71 -38 78v17c38 12 73 34 108 64h16v-408c0 -54 9 -80 46 -85v-19h-132z" />
    <glyph glyph-name="v" unicode="v" horiz-adv-x="389" 
d="M172 -9l-135 408c-13 39 -30 60 -42 62v18h155v-18c-20 -2 -28 -11 -28 -30c0 -12 3 -29 10 -52l90 -281l76 256c5 18 8 34 8 48c0 32 -12 53 -35 59v18h129v-18c-29 -12 -54 -60 -79 -141l-103 -329h-46z" />
    <glyph glyph-name="w" unicode="w" horiz-adv-x="657" 
d="M182 -9l-132 378c-20 57 -34 88 -55 92v18h160v-18c-18 -3 -29 -17 -29 -32c0 -6 3 -14 6 -25l98 -308l73 285l-4 14c-11 41 -27 64 -49 66v18h166v-18c-18 -6 -27 -17 -27 -35c0 -5 2 -12 5 -22l84 -308l59 196c18 59 22 99 22 110c0 30 -14 52 -35 59v18h145v-18
c-32 -10 -65 -62 -94 -154l-99 -316h-50l-102 346l-92 -346h-50z" />
    <glyph glyph-name="x" unicode="x" horiz-adv-x="424" 
d="M131 103c-10 -16 -15 -34 -15 -50c0 -21 11 -33 32 -34v-19h-148v19c23 1 54 24 84 70l94 145l-92 166c-22 40 -44 61 -55 61h-2v18h155v-18c-14 -3 -19 -10 -19 -22c0 -6 1 -12 5 -19l64 -117l50 82c9 15 14 29 14 40c0 19 -13 35 -32 36v18h141v-18
c-28 -4 -54 -32 -87 -82l-69 -104l114 -202c20 -35 39 -52 59 -54v-19h-169v19h2c14 0 23 9 23 19c0 5 -2 15 -7 24l-79 143z" />
    <glyph glyph-name="y" unicode="y" horiz-adv-x="412" 
d="M183 0l-133 392c-14 43 -32 66 -50 69v18h160v-18c-19 -4 -29 -15 -29 -32c0 -3 1 -6 2 -9l98 -307l79 244c7 20 9 39 9 54c0 28 -13 47 -35 50v18h137v-18c-30 -10 -56 -55 -84 -133l-134 -378c-40 -113 -72 -170 -130 -170c-36 0 -61 21 -61 49c0 26 20 49 43 49
c18 0 35 -15 55 -15c26 0 48 38 68 117z" />
    <glyph glyph-name="z" unicode="z" horiz-adv-x="407" 
d="M0 0l295 447h-52c-82 0 -132 -19 -181 -88l-15 4l29 116h328v-19l-282 -427c14 -1 24 -1 32 -1c107 0 174 13 234 101l19 -6l-37 -127h-370z" />
    <glyph glyph-name="braceleft" unicode="{" 
d="M414 740v-26c-95 -1 -115 -34 -115 -129v-69c0 -126 -16 -182 -135 -206c119 -24 135 -79 135 -206v-69c0 -95 19 -127 115 -128v-26h-5c-145 0 -187 42 -187 169v101c0 99 -26 135 -135 144v31c108 9 135 43 135 144v101c0 127 42 169 187 169h5z" />
    <glyph glyph-name="bar" unicode="|" 
d="M214 764h73v-1000h-73v1000z" />
    <glyph glyph-name="braceright" unicode="}" 
d="M86 740h5c145 0 188 -42 188 -169v-101c0 -101 27 -135 135 -144v-31c-108 -9 -135 -43 -135 -144v-101c0 -127 -43 -169 -188 -169h-5v26c95 1 116 33 116 128v69c0 127 15 182 134 206c-119 24 -134 80 -134 206v69c0 95 -21 128 -116 129v26z" />
    <glyph glyph-name="asciitilde" unicode="~" horiz-adv-x="833" 
d="M747 376v-76c-66 -46 -127 -69 -190 -69c-51 0 -95 18 -141 34c-47 16 -91 32 -141 32c-59 0 -117 -27 -188 -77v76c69 47 131 70 189 70c52 0 97 -14 142 -30c49 -17 93 -36 140 -36c62 0 120 27 189 76z" />
    <glyph glyph-name="exclamdown" unicode="&#xa1;" horiz-adv-x="275" 
d="M196 676c0 -33 -28 -60 -61 -60c-34 0 -60 26 -60 60c0 33 27 60 60 60c32 0 61 -28 61 -60zM144 545l34 -272c9 -73 15 -133 15 -183c0 -70 -17 -104 -58 -104s-58 34 -58 104c0 53 6 113 15 183l34 272h18z" />
    <glyph glyph-name="cent" unicode="&#xa2;" horiz-adv-x="551" 
d="M271 32v62c-109 11 -179 101 -179 242c0 140 74 243 180 262v46h32v-43c93 -4 150 -55 150 -106c0 -27 -17 -46 -43 -46c-43 0 -46 29 -55 65c-9 33 -24 51 -52 58v-420c8 -1 15 -2 22 -2c45 0 87 22 122 62l14 -12c-44 -62 -96 -97 -159 -106v-62h-32zM272 162v409
c-62 -12 -94 -76 -94 -191c0 -108 34 -184 94 -218z" />
    <glyph glyph-name="sterling" unicode="&#xa3;" horiz-adv-x="551" 
d="M74 0v52c107 25 168 91 168 155c0 25 -8 48 -25 71h-124v30h97c-68 73 -104 134 -104 202c0 112 85 201 200 201c61 0 115 -21 164 -64l-28 -114l-19 1c-36 101 -79 150 -140 150c-55 0 -100 -45 -100 -114c0 -60 31 -100 68 -147c35 -45 64 -79 74 -115h107v-30h-100
c0 -5 1 -10 1 -16c0 -71 -40 -130 -117 -181h162c58 0 87 10 115 68l20 -7l-46 -142h-373z" />
    <glyph glyph-name="fraction" unicode="&#x2044;" horiz-adv-x="167" 
d="M-167 0l469 711l31 -17l-468 -710z" />
    <glyph glyph-name="yen" unicode="&#xa5;" horiz-adv-x="551" 
d="M186 0v18c33 2 44 29 44 86v175h-202v32h187l-40 80h-147v33h131l-73 147c-32 65 -53 102 -83 106v17h183v-17c-19 -2 -29 -11 -29 -27c0 -14 12 -40 32 -81l118 -247l109 214c19 38 27 71 27 92c0 26 -18 48 -41 49v17h149v-17c-35 -10 -55 -51 -88 -117l-69 -136h129
v-33h-146l-40 -80h186v-32h-198v-175c0 -57 10 -84 43 -86v-18h-182z" />
    <glyph glyph-name="florin" unicode="&#x192;" horiz-adv-x="551" 
d="M321 421l-53 -385c-22 -157 -101 -241 -214 -241c-25 0 -53 5 -84 15l30 110l18 -1c10 -59 34 -89 67 -89c58 0 71 69 91 217l51 374h-93l3 33h94c24 170 96 255 217 255c26 0 55 -5 87 -14l-30 -111l-18 1c-11 60 -36 90 -69 90c-62 0 -75 -70 -92 -221h127l-4 -33h-128
z" />
    <glyph glyph-name="section" unicode="&#xa7;" 
d="M289 177c65 -51 97 -98 97 -147c0 -68 -63 -123 -150 -123c-54 0 -105 22 -155 66l29 94l14 -4c16 -85 65 -134 119 -134c47 0 83 35 83 77c0 38 -31 74 -86 121l-88 76c-57 49 -86 93 -86 142c0 67 56 120 135 120h8c-63 52 -95 95 -95 146c0 70 58 125 142 125
c53 0 101 -18 147 -54l-29 -84l-16 5c-16 73 -56 111 -107 111c-44 0 -77 -33 -77 -76c0 -42 32 -77 88 -125l87 -73c57 -48 85 -93 85 -142c0 -69 -55 -121 -134 -121h-11zM122 370c0 -28 22 -60 63 -100c45 -44 77 -71 115 -71c43 0 77 33 77 74c0 32 -22 62 -60 100
c-48 47 -83 72 -115 72c-47 0 -80 -33 -80 -75z" />
    <glyph glyph-name="currency" unicode="&#xa4;" horiz-adv-x="551" 
d="M545 125c-58 -108 -128 -141 -205 -141c-132 0 -233 120 -249 293h-78l8 32h68v18c0 20 1 41 3 62h-79l8 33h75c22 143 94 288 246 288c43 0 121 -19 170 -64l-36 -116l-21 3c-27 104 -61 148 -125 148c-86 0 -133 -97 -139 -259h244l-8 -33h-237v-5c0 -26 2 -51 4 -75
h214l-8 -32h-203c20 -157 87 -242 175 -242c51 0 99 21 155 102z" />
    <glyph glyph-name="quotesingle" unicode="'" horiz-adv-x="172" 
d="M95 420h-17l-34 224c-1 7 -2 12 -2 18c0 33 16 52 44 52c27 0 44 -18 44 -50c0 -6 -1 -13 -2 -20z" />
    <glyph glyph-name="quotedblleft" unicode="&#x201c;" horiz-adv-x="444" 
d="M202 717c-46 -51 -66 -93 -66 -117c0 -25 10 -30 24 -40c21 -15 32 -30 32 -52c0 -32 -24 -55 -57 -55c-37 0 -68 33 -68 80c0 54 38 125 116 203zM371 717c-46 -51 -66 -93 -66 -117c0 -25 10 -30 24 -40c21 -15 32 -30 32 -52c0 -32 -24 -55 -57 -55
c-37 0 -68 33 -68 80c0 54 38 125 116 203z" />
    <glyph glyph-name="guillemotleft" unicode="&#xab;" horiz-adv-x="370" 
d="M125 240c35 -57 56 -114 63 -176l-25 -8c-37 73 -80 135 -130 184c50 49 93 110 130 183l25 -7c-7 -62 -28 -119 -63 -176zM264 240c35 -57 56 -114 63 -176l-25 -8c-37 73 -80 135 -130 184c50 49 93 110 130 183l25 -7c-7 -62 -28 -119 -63 -176z" />
    <glyph glyph-name="guilsinglleft" unicode="&#x2039;" horiz-adv-x="231" 
d="M125 240c35 -57 56 -114 63 -176l-25 -8c-37 73 -80 135 -130 184c50 49 93 110 130 183l25 -7c-7 -62 -28 -119 -63 -176z" />
    <glyph glyph-name="guilsinglright" unicode="&#x203a;" horiz-adv-x="231" 
d="M106 240c-35 57 -55 114 -62 176l25 7c37 -74 79 -134 129 -183c-50 -49 -92 -111 -129 -184l-25 8c7 62 27 119 62 176z" />
    <glyph glyph-name="fi" unicode="&#xfb01;" horiz-adv-x="479" 
d="M37 0v19c27 1 37 21 37 64v364h-62v32h62c-2 53 -8 94 -8 121c0 87 46 136 112 136c48 0 82 -29 82 -64c0 -24 -17 -41 -38 -41c-33 0 -40 18 -50 44c-7 17 -12 24 -28 24c-13 0 -25 -12 -25 -28c0 -33 43 -94 43 -189v-3h95v-32h-95v-364c0 -43 9 -63 37 -64v-19h-162z
M285 0v19c27 1 37 21 37 64v287c0 41 -9 59 -40 62v15c42 11 78 33 109 65h19v-429c0 -43 9 -63 37 -64v-19h-162zM364 593c-32 0 -60 28 -60 60s27 60 60 60c34 0 61 -26 61 -60c0 -33 -28 -60 -61 -60z" />
    <glyph glyph-name="fl" unicode="&#xfb02;" horiz-adv-x="479" 
d="M37 0v19c27 1 37 21 37 64v364h-62v32h62c-2 53 -8 94 -8 121c0 87 46 136 112 136c48 0 82 -29 82 -64c0 -24 -17 -41 -38 -41c-33 0 -40 18 -50 44c-7 17 -12 24 -28 24c-13 0 -25 -12 -25 -28c0 -33 43 -94 43 -189v-3h95v-32h-95v-364c0 -43 9 -63 37 -64v-19h-162z
M285 0v19c27 1 37 21 37 64v512c0 41 -9 58 -40 61v15c42 11 78 33 109 65h19v-653c0 -43 9 -63 37 -64v-19h-162z" />
    <glyph glyph-name="endash" unicode="&#x2013;" 
d="M0 215v58h500v-58h-500z" />
    <glyph glyph-name="dagger" unicode="&#x2020;" 
d="M194 312c30 50 44 102 44 156c0 7 -1 15 -1 22c-64 -2 -104 -36 -137 -36c-31 0 -52 17 -52 44c0 31 19 49 52 49c30 0 71 -33 132 -33h5c1 8 1 16 1 23c0 82 -37 122 -37 149c0 29 20 50 50 50c27 0 47 -21 47 -50c0 -21 -16 -43 -27 -74c-6 -17 -9 -43 -9 -80v-17h11
c56 0 97 33 127 33c32 0 52 -20 52 -47c0 -30 -20 -47 -52 -47c-33 0 -71 37 -139 37c0 -76 14 -134 45 -179c-31 -122 -39 -262 -41 -423h-28c-2 151 -9 291 -43 423z" />
    <glyph glyph-name="daggerdbl" unicode="&#x2021;" 
d="M194 312c30 50 44 102 44 156c0 7 -1 15 -1 22c-64 -2 -104 -36 -137 -36c-31 0 -52 17 -52 44c0 31 19 49 52 49c30 0 71 -33 132 -33h5c1 8 1 16 1 23c0 82 -37 122 -37 149c0 29 20 50 50 50c27 0 47 -21 47 -50c0 -21 -16 -43 -27 -74c-6 -17 -9 -43 -9 -80v-17h11
c56 0 97 33 127 33c32 0 52 -20 52 -47c0 -30 -20 -47 -52 -47c-33 0 -71 37 -139 37c0 -76 13 -135 45 -181c-27 -45 -44 -96 -44 -157v-21c62 2 103 36 142 36c28 0 48 -17 48 -47c0 -26 -21 -46 -50 -46c-33 0 -74 34 -134 34h-5c-1 -8 -1 -16 -1 -23
c0 -82 37 -124 37 -150c0 -29 -20 -50 -50 -50c-27 0 -47 21 -47 50c0 22 16 45 27 75c6 18 9 50 9 97h-11c-55 0 -96 -34 -129 -34c-29 0 -50 20 -50 49c0 28 20 45 52 45c33 0 71 -37 139 -37c-1 75 -13 135 -45 181z" />
    <glyph glyph-name="periodcentered" unicode="&#xb7;" horiz-adv-x="275" 
d="M78 352c0 33 27 60 60 60c34 0 60 -26 60 -60c0 -33 -27 -60 -60 -60c-32 0 -60 28 -60 60z" />
    <glyph glyph-name="paragraph" unicode="&#xb6;" 
d="M468 722v-42h-59v-680h-54v680h-87v-680h-54v382c-113 5 -182 73 -182 170c0 100 74 170 192 170h244z" />
    <glyph glyph-name="bullet" unicode="&#x2022;" horiz-adv-x="590" 
d="M150 372c0 80 65 144 145 144c79 0 144 -64 144 -144c0 -79 -65 -145 -145 -145s-144 65 -144 145z" />
    <glyph glyph-name="quotesinglbase" unicode="&#x201a;" horiz-adv-x="275" 
d="M73 -157c46 51 66 92 66 116s-9 31 -23 41c-21 15 -32 30 -32 52c0 32 23 54 56 54c37 0 68 -33 68 -80c0 -54 -38 -123 -116 -202z" />
    <glyph glyph-name="quotedblbase" unicode="&#x201e;" horiz-adv-x="444" 
d="M73 -157c46 51 66 92 66 116s-9 31 -23 41c-21 15 -32 30 -32 52c0 32 23 54 56 54c37 0 68 -33 68 -80c0 -54 -38 -123 -116 -202zM242 -157c46 51 66 92 66 116s-9 31 -23 41c-21 15 -32 30 -32 52c0 32 23 54 56 54c37 0 68 -33 68 -80c0 -54 -38 -123 -116 -202z" />
    <glyph glyph-name="quotedblright" unicode="&#x201d;" horiz-adv-x="444" 
d="M73 473c46 51 66 92 66 116s-9 31 -23 41c-21 15 -32 30 -32 52c0 32 23 54 56 54c37 0 68 -33 68 -80c0 -54 -38 -125 -116 -203zM242 473c46 51 66 92 66 116s-9 31 -23 41c-21 15 -32 30 -32 52c0 32 23 54 56 54c37 0 68 -33 68 -80c0 -54 -38 -125 -116 -203z" />
    <glyph glyph-name="guillemotright" unicode="&#xbb;" horiz-adv-x="370" 
d="M245 240c-35 57 -55 114 -62 176l25 7c37 -74 79 -134 129 -183c-50 -49 -92 -111 -129 -184l-25 8c7 62 27 119 62 176zM106 240c-35 57 -55 114 -62 176l25 7c37 -74 79 -134 129 -183c-50 -49 -92 -111 -129 -184l-25 8c7 62 27 119 62 176z" />
    <glyph glyph-name="ellipsis" unicode="&#x2026;" horiz-adv-x="1000" 
d="M109 46c0 33 27 60 60 60c34 0 60 -26 60 -60c0 -33 -27 -60 -60 -60c-32 0 -60 28 -60 60zM442 46c0 33 27 60 60 60c34 0 60 -26 60 -60c0 -33 -27 -60 -60 -60c-32 0 -60 28 -60 60zM776 46c0 33 27 60 60 60c34 0 60 -26 60 -60c0 -33 -27 -60 -60 -60
c-32 0 -60 28 -60 60z" />
    <glyph glyph-name="perthousand" unicode="&#x2030;" horiz-adv-x="1067" 
d="M115 0l469 711l31 -17l-469 -710zM185 277c-85 0 -146 84 -146 219c0 130 67 215 149 215c76 0 139 -84 139 -217c0 -128 -68 -217 -142 -217zM184 296c56 0 74 65 74 200c0 131 -21 195 -76 195c-51 0 -73 -61 -73 -184c0 -141 16 -211 75 -211zM550 -16
c-85 0 -146 84 -146 219c0 130 67 215 149 215c76 0 139 -84 139 -217c0 -128 -68 -217 -142 -217zM549 3c56 0 74 65 74 200c0 131 -21 195 -76 195c-51 0 -73 -61 -73 -184c0 -141 16 -211 75 -211zM885 -16c-85 0 -145 84 -145 219c0 130 67 215 149 215
c76 0 139 -84 139 -217c0 -128 -69 -217 -143 -217zM885 3c56 0 74 65 74 200c0 131 -21 195 -76 195c-51 0 -74 -61 -74 -184c0 -141 17 -211 76 -211z" />
    <glyph glyph-name="questiondown" unicode="&#xbf;" horiz-adv-x="444" 
d="M311 545l2 -208h-18c-121 0 -185 -58 -185 -171c0 -94 57 -154 132 -154c45 0 79 26 84 59c3 21 -1 41 5 59c8 25 29 40 53 40c26 0 45 -21 45 -54c0 -62 -76 -130 -185 -130c-117 0 -211 97 -211 224c0 136 90 228 240 229l6 106h32zM359 676c0 -33 -27 -60 -60 -60
c-34 0 -60 26 -60 60c0 33 27 60 60 60c32 0 60 -28 60 -60z" />
    <glyph glyph-name="grave" unicode="`" 
d="M195 693l141 -146h-33l-161 100c-20 13 -30 27 -30 41c0 20 15 34 35 34c17 0 30 -11 48 -29z" />
    <glyph glyph-name="acute" unicode="&#xb4;" 
d="M358 647l-161 -100h-33l141 146c18 18 31 29 48 29c20 0 35 -14 35 -34c0 -14 -10 -28 -30 -41z" />
    <glyph glyph-name="circumflex" unicode="&#x2c6;" 
d="M221 718h58l113 -171h-28l-114 103l-114 -103h-28z" />
    <glyph glyph-name="tilde" unicode="&#x2dc;" 
d="M364 692h26c-13 -67 -44 -100 -95 -100c-11 0 -23 2 -36 5l-53 14c-8 2 -18 3 -28 3c-22 0 -34 -14 -43 -44h-25c12 69 44 103 96 103c11 0 21 -1 31 -4l54 -14c11 -3 21 -4 27 -4c25 0 37 12 46 41z" />
    <glyph glyph-name="macron" unicode="&#xaf;" 
d="M124 653h252v-61h-252v61z" />
    <glyph glyph-name="breve" unicode="&#x2d8;" 
d="M107 699h25c11 -49 48 -69 118 -69s106 20 117 69h25c-13 -87 -62 -133 -142 -133s-130 46 -143 133z" />
    <glyph glyph-name="dotaccent" unicode="&#x2d9;" 
d="M250 675c28 0 51 -24 51 -52s-22 -51 -51 -51c-28 0 -51 22 -51 51c0 28 24 52 51 52z" />
    <glyph glyph-name="dieresis" unicode="&#xa8;" 
d="M164 672c26 0 49 -23 49 -49c0 -28 -21 -49 -49 -49s-48 21 -48 49c0 26 22 49 48 49zM336 672c26 0 48 -23 48 -49c0 -28 -20 -49 -48 -49s-49 21 -49 49c0 26 23 49 49 49z" />
    <glyph glyph-name="ring" unicode="&#x2da;" 
d="M250 773c66 0 118 -51 118 -117s-52 -118 -118 -118s-117 52 -117 118s51 117 117 117zM250 728c-40 0 -72 -32 -72 -73c0 -40 32 -72 72 -72c41 0 74 32 74 72c0 41 -33 73 -74 73z" />
    <glyph glyph-name="cedilla" unicode="&#xb8;" 
d="M234 0h31v-55c11 2 20 3 30 3c57 0 89 -31 89 -80c0 -52 -39 -86 -107 -86c-42 0 -88 15 -143 37l17 38c44 -25 83 -35 109 -35c41 0 59 14 59 45c0 27 -20 44 -56 44c-8 0 -18 -1 -29 -3v92z" />
    <glyph glyph-name="hungarumlaut" unicode="&#x2dd;" 
d="M284 653l-100 -106h-28l70 137c14 26 27 39 45 39s33 -15 33 -33c0 -10 -7 -23 -20 -37zM419 652l-116 -105h-29l88 140c15 24 30 36 50 36c16 0 29 -13 29 -29c0 -15 -8 -29 -22 -42z" />
    <glyph glyph-name="ogonek" unicode="&#x2db;" 
d="M309 15h24c-59 -46 -88 -89 -88 -130c0 -36 20 -58 49 -58c25 0 45 12 58 36l14 -9c-24 -48 -61 -73 -103 -73c-46 0 -77 30 -77 70c0 58 41 111 123 164z" />
    <glyph glyph-name="caron" unicode="&#x2c7;" 
d="M108 718h28l114 -103l114 103h28l-113 -171h-58z" />
    <glyph glyph-name="emdash" unicode="&#x2014;" horiz-adv-x="1000" 
d="M1000 273v-58h-1000v58h1000z" />
    <glyph glyph-name="AE" unicode="&#xc6;" horiz-adv-x="977" 
d="M-34 0v19c58 23 101 74 146 154l306 547h485l13 -140l-22 -3c-38 102 -105 108 -239 108h-31c-68 0 -75 -3 -75 -56v-205h104c94 0 141 10 161 69h17v-171h-17c-22 65 -66 67 -147 67h-118v-285c0 -63 8 -70 97 -70c68 0 125 0 172 15c46 15 84 51 125 108l20 -11
l-42 -146h-521v19c34 1 47 28 47 88v127h-261l-57 -101c-16 -28 -25 -50 -25 -67c0 -24 16 -40 46 -47v-19h-184zM205 269h242v416h-13z" />
    <glyph glyph-name="ordfeminine" unicode="&#xaa;" horiz-adv-x="332" 
d="M326 409c-18 -23 -40 -35 -63 -35c-32 0 -48 16 -48 49v2c-41 -34 -81 -51 -117 -51c-49 0 -79 30 -79 75c0 66 64 100 196 150v50c0 42 -15 63 -46 63c-36 0 -44 -21 -55 -54c-6 -20 -22 -33 -41 -33s-34 14 -34 33c0 35 51 71 131 71c79 0 109 -29 109 -94v-201
c0 -20 5 -30 17 -30c8 0 14 4 19 13zM215 580c-87 -34 -130 -62 -130 -111c0 -37 23 -61 54 -61c22 0 51 15 76 45v127z" />
    <glyph glyph-name="Lslash" unicode="&#x141;" horiz-adv-x="574" 
d="M42 0v19c34 1 46 28 46 88v189l-88 -62v46l88 61v271c0 60 -12 88 -46 89v19h196v-19c-35 -1 -46 -29 -46 -89v-205l122 85v-45l-122 -85v-258c0 -58 6 -69 82 -69c70 0 128 1 181 31c25 14 54 44 88 92l22 -7l-37 -151h-486z" />
    <glyph glyph-name="Oslash" unicode="&#xd8;" horiz-adv-x="718" 
d="M124 -45l47 88c-90 78 -136 184 -136 316c0 118 39 213 122 294c55 54 129 83 206 83c53 0 103 -14 154 -43l48 91l30 -19l-49 -92c90 -81 137 -188 137 -308c0 -106 -37 -206 -108 -285c-57 -64 -131 -96 -217 -96c-60 0 -111 11 -158 39l-45 -85zM198 94l298 559
c-33 36 -80 56 -137 56c-135 0 -213 -122 -213 -352c0 -115 18 -203 52 -263zM222 64c37 -36 81 -52 136 -52c147 0 214 115 214 349c0 116 -14 202 -51 264z" />
    <glyph glyph-name="OE" unicode="&#x152;" horiz-adv-x="1056" 
d="M1000 0h-444c-56 0 -116 -16 -179 -16c-83 0 -158 28 -218 81c-79 69 -124 173 -124 294c0 117 43 214 134 295c59 53 137 82 218 82c58 0 119 -16 181 -16h414l12 -140l-21 -3c-38 102 -105 108 -239 108h-31c-68 0 -76 -3 -76 -56v-205h104c94 0 142 10 162 69h16v-171
h-17c-22 65 -66 67 -147 67h-118v-285c0 -63 8 -70 97 -70c68 0 125 0 172 15c46 15 84 51 125 108l20 -11zM525 142v450c0 81 -29 117 -136 117c-155 0 -239 -122 -239 -357c0 -228 79 -340 241 -340c107 0 134 39 134 130z" />
    <glyph glyph-name="ordmasculine" unicode="&#xba;" horiz-adv-x="363" 
d="M182 374c-90 0 -159 71 -159 178s69 177 159 177s159 -70 159 -177s-70 -178 -159 -178zM182 392c56 0 84 52 84 158c0 108 -27 162 -84 162s-84 -54 -84 -159c0 -107 27 -161 84 -161z" />
    <glyph glyph-name="ae" unicode="&#xe6;" horiz-adv-x="694" 
d="M317 93c-63 -71 -127 -107 -186 -107c-66 0 -106 42 -106 107c0 94 86 143 262 214v72c0 60 -21 89 -62 89c-48 0 -59 -29 -73 -77c-8 -28 -30 -47 -55 -47s-45 20 -45 47c0 51 68 102 174 102c63 0 109 -19 128 -50c36 35 76 50 125 50c102 0 169 -81 176 -227h-283
c3 -144 66 -225 158 -225c46 0 86 21 119 64l19 -12c-47 -71 -109 -107 -179 -107c-73 0 -133 37 -172 107zM305 115c-14 35 -18 78 -18 131v34c-117 -49 -174 -89 -174 -159c0 -53 30 -87 71 -87c35 0 78 27 121 81zM372 297h146c40 0 51 1 51 23c0 95 -35 148 -96 148
c-67 0 -101 -55 -101 -166v-5z" />
    <glyph glyph-name="dotlessi" unicode="&#x131;" horiz-adv-x="231" 
d="M37 0v19c27 1 37 21 37 64v287c0 41 -8 59 -39 62v15c42 11 78 33 109 65h18v-429c0 -43 9 -63 37 -64v-19h-162z" />
    <glyph glyph-name="lslash" unicode="&#x142;" horiz-adv-x="227" 
d="M32 0v19c27 1 37 21 37 64v234l-69 -49v39l69 48v240c0 41 -8 58 -39 61v15c42 11 79 33 109 65h18v-326l70 49v-39l-70 -48v-289c0 -43 9 -63 37 -64v-19h-162z" />
    <glyph glyph-name="oslash" unicode="&#xf8;" horiz-adv-x="484" 
d="M62 -41l45 80c-51 46 -77 115 -77 201c0 153 92 253 212 253c34 0 67 -9 102 -28l43 78l27 -17l-44 -80c55 -47 84 -117 84 -206c0 -153 -93 -254 -212 -254c-37 0 -72 11 -108 34l-44 -79zM139 95l183 331c-22 28 -47 42 -80 42c-82 0 -119 -77 -119 -232
c0 -52 4 -98 16 -141zM157 59c23 -32 50 -47 85 -47c80 0 119 74 119 225c0 70 -7 122 -20 155z" />
    <glyph glyph-name="oe" unicode="&#x153;" horiz-adv-x="766" 
d="M405 69c-47 -55 -103 -83 -163 -83c-119 0 -212 101 -212 254s92 253 212 253c61 0 118 -28 160 -81c38 55 86 81 149 81c102 0 169 -81 176 -227h-283c3 -144 66 -225 158 -225c46 0 86 21 119 64l19 -12c-47 -71 -108 -107 -178 -107c-64 0 -116 27 -157 83zM444 297
h146c40 0 52 1 52 23c0 95 -35 148 -96 148c-67 0 -102 -55 -102 -166v-5zM130 242c0 -154 35 -231 113 -231c84 0 116 78 116 240c0 145 -36 217 -117 217c-76 0 -112 -75 -112 -226z" />
    <glyph glyph-name="germandbls" unicode="&#xdf;" horiz-adv-x="514" 
d="M37 0v19c27 1 37 21 37 64v364h-62v32h62v102c0 99 61 155 168 155c110 0 175 -54 175 -136c0 -74 -32 -121 -91 -136c96 -10 150 -77 150 -191c0 -170 -96 -287 -195 -287c-49 0 -87 36 -87 77c0 27 18 46 40 46c23 0 38 -16 42 -45c3 -25 1 -46 27 -46
c56 0 81 67 81 201c0 160 -33 228 -158 228h-25v32h31c73 0 95 28 95 107c0 83 -29 124 -87 124c-56 0 -80 -37 -80 -116v-594h-123z" />
    <glyph glyph-name="Aacute" unicode="&#xc1;" horiz-adv-x="606" 
d="M-23 0v19c59 20 85 75 114 165l180 552h63l199 -614c22 -68 43 -102 69 -103v-19h-195v19c23 5 35 20 35 37c0 13 -6 29 -12 49l-40 129h-246l-31 -96c-6 -20 -9 -38 -9 -52c0 -37 17 -61 49 -67v-19h-176zM156 269h224l-108 356zM411 890l-161 -100h-33l141 146
c18 18 31 29 48 29c20 0 35 -14 35 -34c0 -14 -10 -28 -30 -41z" />
    <glyph glyph-name="Acircumflex" unicode="&#xc2;" horiz-adv-x="606" 
d="M-23 0v19c59 20 85 75 114 165l180 552h63l199 -614c22 -68 43 -102 69 -103v-19h-195v19c23 5 35 20 35 37c0 13 -6 29 -12 49l-40 129h-246l-31 -96c-6 -20 -9 -38 -9 -52c0 -37 17 -61 49 -67v-19h-176zM156 269h224l-108 356zM274 961h58l113 -171h-28l-114 103
l-114 -103h-28z" />
    <glyph glyph-name="Adieresis" unicode="&#xc4;" horiz-adv-x="606" 
d="M-23 0v19c59 20 85 75 114 165l180 552h63l199 -614c22 -68 43 -102 69 -103v-19h-195v19c23 5 35 20 35 37c0 13 -6 29 -12 49l-40 129h-246l-31 -96c-6 -20 -9 -38 -9 -52c0 -37 17 -61 49 -67v-19h-176zM156 269h224l-108 356zM217 915c26 0 49 -23 49 -49
c0 -28 -21 -49 -49 -49s-48 21 -48 49c0 26 22 49 48 49zM389 915c26 0 48 -23 48 -49c0 -28 -20 -49 -48 -49s-49 21 -49 49c0 26 23 49 49 49z" />
    <glyph glyph-name="Agrave" unicode="&#xc0;" horiz-adv-x="606" 
d="M-23 0v19c59 20 85 75 114 165l180 552h63l199 -614c22 -68 43 -102 69 -103v-19h-195v19c23 5 35 20 35 37c0 13 -6 29 -12 49l-40 129h-246l-31 -96c-6 -20 -9 -38 -9 -52c0 -37 17 -61 49 -67v-19h-176zM156 269h224l-108 356zM248 936l141 -146h-33l-161 100
c-20 13 -30 27 -30 41c0 20 15 34 35 34c17 0 30 -11 48 -29z" />
    <glyph glyph-name="Aring" unicode="&#xc5;" horiz-adv-x="606" 
d="M-23 0v18c60 20 85 74 114 162l177 526h71l194 -586c22 -66 43 -101 69 -102v-18h-195v18c23 6 35 19 35 36c0 13 -6 29 -12 49l-40 126h-246l-31 -94c-6 -19 -9 -38 -9 -51c0 -36 17 -60 49 -66v-18h-176zM156 263h224l-108 349zM303 963c65 0 116 -50 116 -113
c0 -62 -51 -112 -116 -112c-64 0 -114 50 -114 113c0 62 50 112 114 112zM303 920c-39 0 -70 -32 -70 -70s31 -69 70 -69c40 0 72 31 72 69s-32 70 -72 70z" />
    <glyph glyph-name="Atilde" unicode="&#xc3;" horiz-adv-x="606" 
d="M-23 0v19c59 20 85 75 114 165l180 552h63l199 -614c22 -68 43 -102 69 -103v-19h-195v19c23 5 35 20 35 37c0 13 -6 29 -12 49l-40 129h-246l-31 -96c-6 -20 -9 -38 -9 -52c0 -37 17 -61 49 -67v-19h-176zM156 269h224l-108 356zM417 935h26c-13 -67 -44 -100 -95 -100
c-11 0 -23 2 -36 5l-53 14c-8 2 -18 3 -28 3c-22 0 -34 -14 -43 -44h-25c12 69 44 103 96 103c11 0 21 -1 31 -4l54 -14c11 -3 21 -4 27 -4c25 0 37 12 46 41z" />
    <glyph glyph-name="Ccedilla" unicode="&#xc7;" horiz-adv-x="671" 
d="M646 162c-74 -121 -165 -178 -290 -178c-192 0 -321 138 -321 355c0 135 45 247 132 326c48 44 122 71 202 71c78 0 159 -29 245 -85l-38 -121l-23 3c-36 113 -108 173 -206 173c-124 0 -213 -117 -213 -308c0 -215 115 -357 266 -357c90 0 164 44 228 134zM320 0h31v-55
c11 2 20 3 30 3c57 0 89 -31 89 -80c0 -52 -39 -86 -107 -86c-42 0 -88 15 -143 37l17 38c44 -25 83 -35 109 -35c41 0 59 14 59 45c0 27 -20 44 -56 44c-8 0 -18 -1 -29 -3v92z" />
    <glyph glyph-name="Eacute" unicode="&#xc9;" horiz-adv-x="613" 
d="M37 0v19c34 1 46 28 46 88v505c0 60 -11 88 -46 89v19h503l12 -140l-21 -3c-38 102 -105 108 -239 108h-31c-68 0 -76 -3 -76 -56v-205h104c94 0 142 10 162 69h17v-171h-18c-22 65 -66 67 -147 67h-118v-285c0 -63 8 -70 97 -70c68 0 125 0 172 15c46 15 84 51 125 108
l21 -11l-42 -146h-521zM410 890l-161 -100h-33l141 146c18 18 31 29 48 29c20 0 35 -14 35 -34c0 -14 -10 -28 -30 -41z" />
    <glyph glyph-name="Ecircumflex" unicode="&#xca;" horiz-adv-x="613" 
d="M37 0v19c34 1 46 28 46 88v505c0 60 -11 88 -46 89v19h503l12 -140l-21 -3c-38 102 -105 108 -239 108h-31c-68 0 -76 -3 -76 -56v-205h104c94 0 142 10 162 69h17v-171h-18c-22 65 -66 67 -147 67h-118v-285c0 -63 8 -70 97 -70c68 0 125 0 172 15c46 15 84 51 125 108
l21 -11l-42 -146h-521zM273 961h58l113 -171h-28l-114 103l-114 -103h-28z" />
    <glyph glyph-name="Edieresis" unicode="&#xcb;" horiz-adv-x="613" 
d="M37 0v19c34 1 46 28 46 88v505c0 60 -11 88 -46 89v19h503l12 -140l-21 -3c-38 102 -105 108 -239 108h-31c-68 0 -76 -3 -76 -56v-205h104c94 0 142 10 162 69h17v-171h-18c-22 65 -66 67 -147 67h-118v-285c0 -63 8 -70 97 -70c68 0 125 0 172 15c46 15 84 51 125 108
l21 -11l-42 -146h-521zM216 915c26 0 49 -23 49 -49c0 -28 -21 -49 -49 -49s-48 21 -48 49c0 26 22 49 48 49zM388 915c26 0 48 -23 48 -49c0 -28 -20 -49 -48 -49s-49 21 -49 49c0 26 23 49 49 49z" />
    <glyph glyph-name="Egrave" unicode="&#xc8;" horiz-adv-x="613" 
d="M37 0v19c34 1 46 28 46 88v505c0 60 -11 88 -46 89v19h503l12 -140l-21 -3c-38 102 -105 108 -239 108h-31c-68 0 -76 -3 -76 -56v-205h104c94 0 142 10 162 69h17v-171h-18c-22 65 -66 67 -147 67h-118v-285c0 -63 8 -70 97 -70c68 0 125 0 172 15c46 15 84 51 125 108
l21 -11l-42 -146h-521zM247 936l141 -146h-33l-161 100c-20 13 -30 27 -30 41c0 20 15 34 35 34c17 0 30 -11 48 -29z" />
    <glyph glyph-name="Eth" unicode="&#xd0;" horiz-adv-x="725" 
d="M37 0v19c34 1 46 28 46 88v273h-83v34h83v198c0 60 -11 88 -46 89v19l160 5c35 1 62 1 81 1c86 0 156 -7 220 -40c114 -58 187 -185 187 -336c0 -216 -139 -350 -382 -350h-266zM185 95c0 -58 25 -65 93 -65c214 0 296 84 296 324c0 229 -83 341 -255 341
c-104 0 -134 -13 -134 -83v-198h174v-34h-174v-285z" />
    <glyph glyph-name="Euro" unicode="&#x20ac;" horiz-adv-x="551" 
d="M545 125c-58 -108 -128 -141 -205 -141c-132 0 -233 120 -249 293h-78l8 32h68v18c0 20 1 41 3 62h-79l8 33h75c22 143 94 288 246 288c43 0 121 -19 170 -64l-36 -116l-21 3c-27 104 -61 148 -125 148c-86 0 -133 -97 -139 -259h244l-8 -33h-237v-5c0 -26 2 -51 4 -75
h214l-8 -32h-203c20 -157 87 -242 175 -242c51 0 99 21 155 102z" />
    <glyph glyph-name="Iacute" unicode="&#xcd;" horiz-adv-x="280" 
d="M42 0v19c34 1 46 28 46 88v505c0 60 -12 88 -46 89v19h196v-19c-35 -1 -46 -29 -46 -89v-505c0 -60 11 -87 46 -88v-19h-196zM248 890l-161 -100h-33l141 146c18 18 31 29 48 29c20 0 35 -14 35 -34c0 -14 -10 -28 -30 -41z" />
    <glyph glyph-name="Icircumflex" unicode="&#xce;" horiz-adv-x="280" 
d="M42 0v19c34 1 46 28 46 88v505c0 60 -12 88 -46 89v19h196v-19c-35 -1 -46 -29 -46 -89v-505c0 -60 11 -87 46 -88v-19h-196zM111 961h58l113 -171h-28l-114 103l-114 -103h-28z" />
    <glyph glyph-name="Idieresis" unicode="&#xcf;" horiz-adv-x="280" 
d="M42 0v19c34 1 46 28 46 88v505c0 60 -12 88 -46 89v19h196v-19c-35 -1 -46 -29 -46 -89v-505c0 -60 11 -87 46 -88v-19h-196zM54 915c26 0 49 -23 49 -49c0 -28 -21 -49 -49 -49s-48 21 -48 49c0 26 22 49 48 49zM226 915c26 0 48 -23 48 -49c0 -28 -20 -49 -48 -49
s-49 21 -49 49c0 26 23 49 49 49z" />
    <glyph glyph-name="Igrave" unicode="&#xcc;" horiz-adv-x="280" 
d="M42 0v19c34 1 46 28 46 88v505c0 60 -12 88 -46 89v19h196v-19c-35 -1 -46 -29 -46 -89v-505c0 -60 11 -87 46 -88v-19h-196zM85 936l141 -146h-33l-161 100c-20 13 -30 27 -30 41c0 20 15 34 35 34c17 0 30 -11 48 -29z" />
    <glyph glyph-name="Ntilde" unicode="&#xd1;" horiz-adv-x="681" 
d="M74 147v459c0 62 -18 92 -60 95v19h152l403 -565v355c0 119 -14 180 -74 191v19h161v-19c-50 -30 -52 -87 -52 -184v-525h-41l-454 636v-473c0 -81 24 -127 70 -136v-19h-173v19c48 18 68 57 68 128zM450 935h26c-13 -67 -44 -100 -95 -100c-11 0 -23 2 -36 5l-53 14
c-8 2 -18 3 -28 3c-22 0 -34 -14 -43 -44h-25c12 69 44 103 96 103c11 0 21 -1 31 -4l54 -14c11 -3 21 -4 27 -4c25 0 37 12 46 41z" />
    <glyph glyph-name="Oacute" unicode="&#xd3;" horiz-adv-x="718" 
d="M358 -16c-86 0 -152 25 -211 81c-71 68 -112 172 -112 294c0 118 39 214 122 294c55 54 129 83 206 83c74 0 146 -28 192 -71c83 -79 128 -185 128 -301c0 -106 -37 -205 -108 -284c-57 -64 -131 -96 -217 -96zM359 12c147 0 208 118 208 361c0 224 -69 336 -208 336
c-131 0 -209 -123 -209 -352c0 -232 68 -345 209 -345zM470 890l-161 -100h-33l141 146c18 18 31 29 48 29c20 0 35 -14 35 -34c0 -14 -10 -28 -30 -41z" />
    <glyph glyph-name="Ocircumflex" unicode="&#xd4;" horiz-adv-x="718" 
d="M358 -16c-86 0 -152 25 -211 81c-71 68 -112 172 -112 294c0 118 39 214 122 294c55 54 129 83 206 83c74 0 146 -28 192 -71c83 -79 128 -185 128 -301c0 -106 -37 -205 -108 -284c-57 -64 -131 -96 -217 -96zM359 12c147 0 208 118 208 361c0 224 -69 336 -208 336
c-131 0 -209 -123 -209 -352c0 -232 68 -345 209 -345zM333 961h58l113 -171h-28l-114 103l-114 -103h-28z" />
    <glyph glyph-name="Odieresis" unicode="&#xd6;" horiz-adv-x="718" 
d="M358 -16c-86 0 -152 25 -211 81c-71 68 -112 172 -112 294c0 118 39 214 122 294c55 54 129 83 206 83c74 0 146 -28 192 -71c83 -79 128 -185 128 -301c0 -106 -37 -205 -108 -284c-57 -64 -131 -96 -217 -96zM359 12c147 0 208 118 208 361c0 224 -69 336 -208 336
c-131 0 -209 -123 -209 -352c0 -232 68 -345 209 -345zM276 915c26 0 49 -23 49 -49c0 -28 -21 -49 -49 -49s-48 21 -48 49c0 26 22 49 48 49zM448 915c26 0 48 -23 48 -49c0 -28 -20 -49 -48 -49s-49 21 -49 49c0 26 23 49 49 49z" />
    <glyph glyph-name="Ograve" unicode="&#xd2;" horiz-adv-x="718" 
d="M358 -16c-86 0 -152 25 -211 81c-71 68 -112 172 -112 294c0 118 39 214 122 294c55 54 129 83 206 83c74 0 146 -28 192 -71c83 -79 128 -185 128 -301c0 -106 -37 -205 -108 -284c-57 -64 -131 -96 -217 -96zM359 12c147 0 208 118 208 361c0 224 -69 336 -208 336
c-131 0 -209 -123 -209 -352c0 -232 68 -345 209 -345zM307 936l141 -146h-33l-161 100c-20 13 -30 27 -30 41c0 20 15 34 35 34c17 0 30 -11 48 -29z" />
    <glyph glyph-name="Otilde" unicode="&#xd5;" horiz-adv-x="718" 
d="M358 -16c-86 0 -152 25 -211 81c-71 68 -112 172 -112 294c0 118 39 214 122 294c55 54 129 83 206 83c74 0 146 -28 192 -71c83 -79 128 -185 128 -301c0 -106 -37 -205 -108 -284c-57 -64 -131 -96 -217 -96zM359 12c147 0 208 118 208 361c0 224 -69 336 -208 336
c-131 0 -209 -123 -209 -352c0 -232 68 -345 209 -345zM476 935h26c-13 -67 -44 -100 -95 -100c-11 0 -23 2 -36 5l-53 14c-8 2 -18 3 -28 3c-22 0 -34 -14 -43 -44h-25c12 69 44 103 96 103c11 0 21 -1 31 -4l54 -14c11 -3 21 -4 27 -4c25 0 37 12 46 41z" />
    <glyph glyph-name="Scaron" unicode="&#x160;" horiz-adv-x="567" 
d="M35 77l39 139l22 -4c29 -129 105 -199 206 -199c93 0 154 58 154 140c0 94 -60 128 -176 174c-65 26 -123 44 -164 87c-34 36 -52 79 -52 127c0 110 91 195 217 195c68 0 141 -24 216 -71l-32 -124l-20 4c-27 103 -93 160 -174 160c-85 0 -136 -49 -136 -118
c0 -76 54 -109 154 -150c83 -34 150 -58 191 -98c37 -36 54 -81 54 -138c0 -123 -98 -217 -243 -217c-94 0 -184 32 -256 93zM142 961h28l114 -103l114 103h28l-113 -171h-58z" />
    <glyph glyph-name="Thorn" unicode="&#xde;" horiz-adv-x="613" 
d="M37 0v19c34 1 46 28 46 88v505c0 60 -11 88 -46 89v19h194v-19c-35 -1 -46 -29 -46 -89v-35c28 2 54 3 79 3c220 0 340 -83 340 -209c0 -127 -108 -202 -312 -202c-38 0 -73 2 -107 7v-69c0 -60 11 -87 46 -88v-19h-194zM185 204c26 -5 54 -6 83 -6c156 0 232 57 232 175
c0 113 -72 178 -204 178c-96 0 -111 -20 -111 -72v-275z" />
    <glyph glyph-name="Uacute" unicode="&#xda;" horiz-adv-x="697" 
d="M88 612c0 60 -12 88 -46 89v19h196v-19c-35 -1 -46 -29 -46 -89v-357c0 -162 46 -228 187 -228c61 0 106 12 142 41c57 46 62 122 62 240v238c0 97 -21 147 -70 155v19h169v-19c-52 -16 -64 -66 -64 -160v-234c0 -107 -6 -184 -45 -235c-46 -60 -119 -88 -223 -88
c-98 0 -174 31 -218 86c-41 51 -44 117 -44 205v337zM490 890l-161 -100h-33l141 146c18 18 31 29 48 29c20 0 35 -14 35 -34c0 -14 -10 -28 -30 -41z" />
    <glyph glyph-name="Ucircumflex" unicode="&#xdb;" horiz-adv-x="697" 
d="M88 612c0 60 -12 88 -46 89v19h196v-19c-35 -1 -46 -29 -46 -89v-357c0 -162 46 -228 187 -228c61 0 106 12 142 41c57 46 62 122 62 240v238c0 97 -21 147 -70 155v19h169v-19c-52 -16 -64 -66 -64 -160v-234c0 -107 -6 -184 -45 -235c-46 -60 -119 -88 -223 -88
c-98 0 -174 31 -218 86c-41 51 -44 117 -44 205v337zM353 961h58l113 -171h-28l-114 103l-114 -103h-28z" />
    <glyph glyph-name="Udieresis" unicode="&#xdc;" horiz-adv-x="697" 
d="M88 612c0 60 -12 88 -46 89v19h196v-19c-35 -1 -46 -29 -46 -89v-357c0 -162 46 -228 187 -228c61 0 106 12 142 41c57 46 62 122 62 240v238c0 97 -21 147 -70 155v19h169v-19c-52 -16 -64 -66 -64 -160v-234c0 -107 -6 -184 -45 -235c-46 -60 -119 -88 -223 -88
c-98 0 -174 31 -218 86c-41 51 -44 117 -44 205v337zM296 915c26 0 49 -23 49 -49c0 -28 -21 -49 -49 -49s-48 21 -48 49c0 26 22 49 48 49zM468 915c26 0 48 -23 48 -49c0 -28 -20 -49 -48 -49s-49 21 -49 49c0 26 23 49 49 49z" />
    <glyph glyph-name="Ugrave" unicode="&#xd9;" horiz-adv-x="697" 
d="M88 612c0 60 -12 88 -46 89v19h196v-19c-35 -1 -46 -29 -46 -89v-357c0 -162 46 -228 187 -228c61 0 106 12 142 41c57 46 62 122 62 240v238c0 97 -21 147 -70 155v19h169v-19c-52 -16 -64 -66 -64 -160v-234c0 -107 -6 -184 -45 -235c-46 -60 -119 -88 -223 -88
c-98 0 -174 31 -218 86c-41 51 -44 117 -44 205v337zM327 936l141 -146h-33l-161 100c-20 13 -30 27 -30 41c0 20 15 34 35 34c17 0 30 -11 48 -29z" />
    <glyph glyph-name="Yacute" unicode="&#xdd;" horiz-adv-x="616" 
d="M207 0v19c34 1 47 28 47 88v183l-167 302c-37 66 -58 106 -92 110v18h202v-18c-21 -2 -32 -11 -32 -28c0 -13 12 -41 36 -84l138 -252l119 218c21 39 30 74 30 95c0 27 -20 50 -46 51v18h178v-18c-44 -5 -69 -49 -109 -121l-155 -283v-191c0 -60 11 -87 46 -88v-19h-195z
M416 890l-161 -100h-33l141 146c18 18 31 29 48 29c20 0 35 -14 35 -34c0 -14 -10 -28 -30 -41z" />
    <glyph glyph-name="Ydieresis" unicode="&#x178;" horiz-adv-x="616" 
d="M207 0v19c34 1 47 28 47 88v183l-167 302c-37 66 -58 106 -92 110v18h202v-18c-21 -2 -32 -11 -32 -28c0 -13 12 -41 36 -84l138 -252l119 218c21 39 30 74 30 95c0 27 -20 50 -46 51v18h178v-18c-44 -5 -69 -49 -109 -121l-155 -283v-191c0 -60 11 -87 46 -88v-19h-195z
M222 915c26 0 49 -23 49 -49c0 -28 -21 -49 -49 -49s-48 21 -48 49c0 26 22 49 48 49zM394 915c26 0 48 -23 48 -49c0 -28 -20 -49 -48 -49s-49 21 -49 49c0 26 23 49 49 49z" />
    <glyph glyph-name="Zcaron" unicode="&#x17d;" horiz-adv-x="602" 
d="M0 0v16l441 669h-93c-71 0 -129 -1 -181 -31c-24 -14 -54 -45 -89 -93l-20 7l30 152h495l-452 -685h173c117 0 188 35 250 136l24 -8l-41 -163h-537zM159 961h28l114 -103l114 103h28l-113 -171h-58z" />
    <glyph glyph-name="aacute" unicode="&#xe1;" horiz-adv-x="442" 
d="M434 36c-24 -33 -53 -50 -84 -50c-42 0 -63 23 -63 70v3c-55 -49 -109 -73 -156 -73c-66 0 -106 42 -106 107c0 94 86 143 262 214v72c0 60 -21 89 -62 89c-48 0 -59 -29 -73 -77c-8 -28 -30 -47 -55 -47s-45 20 -45 47c0 51 68 102 174 102s146 -41 146 -134v-287
c0 -29 6 -44 22 -44c11 0 19 6 26 19zM287 280c-117 -49 -174 -89 -174 -159c0 -53 31 -87 72 -87c30 0 68 22 102 64v182zM326 647l-161 -100h-33l141 146c18 18 31 29 48 29c20 0 35 -14 35 -34c0 -14 -10 -28 -30 -41z" />
    <glyph glyph-name="acircumflex" unicode="&#xe2;" horiz-adv-x="442" 
d="M434 36c-24 -33 -53 -50 -84 -50c-42 0 -63 23 -63 70v3c-55 -49 -109 -73 -156 -73c-66 0 -106 42 -106 107c0 94 86 143 262 214v72c0 60 -21 89 -62 89c-48 0 -59 -29 -73 -77c-8 -28 -30 -47 -55 -47s-45 20 -45 47c0 51 68 102 174 102s146 -41 146 -134v-287
c0 -29 6 -44 22 -44c11 0 19 6 26 19zM287 280c-117 -49 -174 -89 -174 -159c0 -53 31 -87 72 -87c30 0 68 22 102 64v182zM189 718h58l113 -171h-28l-114 103l-114 -103h-28z" />
    <glyph glyph-name="adieresis" unicode="&#xe4;" horiz-adv-x="442" 
d="M434 36c-24 -33 -53 -50 -84 -50c-42 0 -63 23 -63 70v3c-55 -49 -109 -73 -156 -73c-66 0 -106 42 -106 107c0 94 86 143 262 214v72c0 60 -21 89 -62 89c-48 0 -59 -29 -73 -77c-8 -28 -30 -47 -55 -47s-45 20 -45 47c0 51 68 102 174 102s146 -41 146 -134v-287
c0 -29 6 -44 22 -44c11 0 19 6 26 19zM287 280c-117 -49 -174 -89 -174 -159c0 -53 31 -87 72 -87c30 0 68 22 102 64v182zM132 672c26 0 49 -23 49 -49c0 -28 -21 -49 -49 -49s-48 21 -48 49c0 26 22 49 48 49zM304 672c26 0 48 -23 48 -49c0 -28 -20 -49 -48 -49
s-49 21 -49 49c0 26 23 49 49 49z" />
    <glyph glyph-name="agrave" unicode="&#xe0;" horiz-adv-x="442" 
d="M434 36c-24 -33 -53 -50 -84 -50c-42 0 -63 23 -63 70v3c-55 -49 -109 -73 -156 -73c-66 0 -106 42 -106 107c0 94 86 143 262 214v72c0 60 -21 89 -62 89c-48 0 -59 -29 -73 -77c-8 -28 -30 -47 -55 -47s-45 20 -45 47c0 51 68 102 174 102s146 -41 146 -134v-287
c0 -29 6 -44 22 -44c11 0 19 6 26 19zM287 280c-117 -49 -174 -89 -174 -159c0 -53 31 -87 72 -87c30 0 68 22 102 64v182zM163 693l141 -146h-33l-161 100c-20 13 -30 27 -30 41c0 20 15 34 35 34c17 0 30 -11 48 -29z" />
    <glyph glyph-name="aring" unicode="&#xe5;" horiz-adv-x="442" 
d="M434 36c-24 -33 -53 -50 -84 -50c-42 0 -63 23 -63 70v3c-55 -49 -109 -73 -156 -73c-66 0 -106 42 -106 107c0 94 86 143 262 214v72c0 60 -21 89 -62 89c-48 0 -59 -29 -73 -77c-8 -28 -30 -47 -55 -47s-45 20 -45 47c0 51 68 102 174 102s146 -41 146 -134v-287
c0 -29 6 -44 22 -44c11 0 19 6 26 19zM287 280c-117 -49 -174 -89 -174 -159c0 -53 31 -87 72 -87c30 0 68 22 102 64v182zM225 760c66 0 117 -51 117 -117s-51 -118 -117 -118s-118 52 -118 118s52 117 118 117zM225 716c-40 0 -73 -32 -73 -73c0 -40 33 -73 73 -73
c41 0 73 33 73 73c0 41 -32 73 -73 73z" />
    <glyph glyph-name="atilde" unicode="&#xe3;" horiz-adv-x="442" 
d="M434 36c-24 -33 -53 -50 -84 -50c-42 0 -63 23 -63 70v3c-55 -49 -109 -73 -156 -73c-66 0 -106 42 -106 107c0 94 86 143 262 214v72c0 60 -21 89 -62 89c-48 0 -59 -29 -73 -77c-8 -28 -30 -47 -55 -47s-45 20 -45 47c0 51 68 102 174 102s146 -41 146 -134v-287
c0 -29 6 -44 22 -44c11 0 19 6 26 19zM287 280c-117 -49 -174 -89 -174 -159c0 -53 31 -87 72 -87c30 0 68 22 102 64v182zM332 692h26c-13 -67 -44 -100 -95 -100c-11 0 -23 2 -36 5l-53 14c-8 2 -18 3 -28 3c-22 0 -34 -14 -43 -44h-25c12 69 44 103 96 103
c11 0 21 -1 31 -4l54 -14c11 -3 21 -4 27 -4c25 0 37 12 46 41z" />
    <glyph glyph-name="brokenbar" unicode="&#xa6;" 
d="M214 699h73v-370h-73v370zM214 199h73v-370h-73v370z" />
    <glyph glyph-name="ccedilla" unicode="&#xe7;" horiz-adv-x="417" 
d="M385 104l15 -11c-50 -70 -114 -107 -176 -107c-114 0 -194 92 -194 242c0 157 89 265 217 265c81 0 145 -54 145 -106c0 -27 -17 -46 -43 -46c-43 0 -47 29 -56 65c-10 40 -32 60 -68 60c-68 0 -109 -67 -109 -194c0 -144 62 -229 148 -229c45 0 86 20 121 61zM200 0h31
v-55c11 2 20 3 30 3c57 0 89 -31 89 -80c0 -52 -39 -86 -107 -86c-42 0 -88 15 -143 37l17 38c44 -25 83 -35 109 -35c41 0 59 14 59 45c0 27 -20 44 -56 44c-8 0 -18 -1 -29 -3v92z" />
    <glyph glyph-name="copyright" unicode="&#xa9;" horiz-adv-x="822" 
d="M412 679c90 0 179 -37 244 -101c64 -64 102 -154 102 -247c0 -91 -36 -178 -102 -245c-65 -66 -151 -102 -245 -102c-93 0 -178 36 -245 102s-102 150 -102 245c0 92 36 178 102 245c65 66 153 103 246 103zM412 637c-80 0 -158 -33 -215 -91c-58 -59 -88 -134 -88 -215
c0 -83 31 -157 89 -215c59 -58 132 -89 213 -89c82 0 156 31 213 89c58 59 90 136 90 215c0 80 -33 161 -89 217s-135 89 -213 89zM548 536h18l1 -154h-21c-21 88 -68 133 -137 133c-77 0 -117 -61 -117 -181c0 -122 44 -186 127 -186c55 0 100 29 137 86l19 -13
c-39 -68 -96 -103 -169 -103c-113 0 -201 92 -201 209c0 121 89 211 200 211c62 0 95 -32 112 -32c18 0 27 9 31 30z" />
    <glyph glyph-name="degree" unicode="&#xb0;" horiz-adv-x="329" 
d="M165 711c77 0 140 -63 140 -141c0 -76 -61 -140 -141 -140c-79 0 -140 62 -140 140s64 141 141 141zM165 665c-52 0 -95 -41 -95 -94s42 -96 95 -96c54 0 94 44 94 96s-41 94 -94 94z" />
    <glyph glyph-name="divide" unicode="&#xf7;" horiz-adv-x="833" 
d="M417 540c33 0 61 -28 61 -62c0 -33 -27 -61 -61 -61s-61 27 -61 61s28 62 61 62zM124 332h585v-68h-585v68zM417 179c33 0 61 -27 61 -61c0 -33 -27 -61 -61 -61c-35 0 -61 27 -61 61s28 61 61 61z" />
    <glyph glyph-name="eacute" unicode="&#xe9;" horiz-adv-x="440" 
d="M394 105l19 -12c-47 -71 -108 -107 -178 -107c-117 0 -205 98 -205 245c0 164 77 262 194 262c102 0 169 -81 176 -227h-283c3 -144 66 -225 158 -225c46 0 86 21 119 64zM117 297h146c40 0 52 1 52 23c0 95 -35 148 -96 148c-67 0 -102 -55 -102 -166v-5zM328 647
l-161 -100h-33l141 146c18 18 31 29 48 29c20 0 35 -14 35 -34c0 -14 -10 -28 -30 -41z" />
    <glyph glyph-name="ecircumflex" unicode="&#xea;" horiz-adv-x="440" 
d="M394 105l19 -12c-47 -71 -108 -107 -178 -107c-117 0 -205 98 -205 245c0 164 77 262 194 262c102 0 169 -81 176 -227h-283c3 -144 66 -225 158 -225c46 0 86 21 119 64zM117 297h146c40 0 52 1 52 23c0 95 -35 148 -96 148c-67 0 -102 -55 -102 -166v-5zM191 718h58
l113 -171h-28l-114 103l-114 -103h-28z" />
    <glyph glyph-name="edieresis" unicode="&#xeb;" horiz-adv-x="440" 
d="M394 105l19 -12c-47 -71 -108 -107 -178 -107c-117 0 -205 98 -205 245c0 164 77 262 194 262c102 0 169 -81 176 -227h-283c3 -144 66 -225 158 -225c46 0 86 21 119 64zM117 297h146c40 0 52 1 52 23c0 95 -35 148 -96 148c-67 0 -102 -55 -102 -166v-5zM134 672
c26 0 49 -23 49 -49c0 -28 -21 -49 -49 -49s-48 21 -48 49c0 26 22 49 48 49zM306 672c26 0 48 -23 48 -49c0 -28 -20 -49 -48 -49s-49 21 -49 49c0 26 23 49 49 49z" />
    <glyph glyph-name="egrave" unicode="&#xe8;" horiz-adv-x="440" 
d="M394 105l19 -12c-47 -71 -108 -107 -178 -107c-117 0 -205 98 -205 245c0 164 77 262 194 262c102 0 169 -81 176 -227h-283c3 -144 66 -225 158 -225c46 0 86 21 119 64zM117 297h146c40 0 52 1 52 23c0 95 -35 148 -96 148c-67 0 -102 -55 -102 -166v-5zM165 693
l141 -146h-33l-161 100c-20 13 -30 27 -30 41c0 20 15 34 35 34c17 0 30 -11 48 -29z" />
    <glyph glyph-name="eth" unicode="&#xf0;" horiz-adv-x="484" 
d="M332 470c-19 45 -41 88 -71 129l-130 -84l-13 22l128 83c-24 31 -57 64 -98 97l11 19c45 -28 85 -58 122 -92l121 77l14 -22l-114 -73c106 -108 152 -216 152 -360c0 -180 -86 -280 -212 -280c-119 0 -212 101 -212 254s92 253 212 253c31 0 60 -8 90 -23zM242 12
c80 0 119 74 119 225c0 154 -38 231 -119 231c-80 0 -119 -75 -119 -226c0 -154 37 -230 119 -230z" />
    <glyph glyph-name="iacute" unicode="&#xed;" horiz-adv-x="231" 
d="M37 0v19c27 1 37 21 37 64v287c0 41 -8 59 -39 62v15c42 11 78 33 109 65h18v-429c0 -43 9 -63 37 -64v-19h-162zM224 647l-161 -100h-33l141 146c18 18 31 29 48 29c20 0 35 -14 35 -34c0 -14 -10 -28 -30 -41z" />
    <glyph glyph-name="icircumflex" unicode="&#xee;" horiz-adv-x="231" 
d="M37 0v19c27 1 37 21 37 64v287c0 41 -8 59 -39 62v15c42 11 78 33 109 65h18v-429c0 -43 9 -63 37 -64v-19h-162zM87 718h58l113 -171h-28l-114 103l-114 -103h-28z" />
    <glyph glyph-name="idieresis" unicode="&#xef;" horiz-adv-x="231" 
d="M37 0v19c27 1 37 21 37 64v287c0 41 -8 59 -39 62v15c42 11 78 33 109 65h18v-429c0 -43 9 -63 37 -64v-19h-162zM30 672c26 0 49 -23 49 -49c0 -28 -21 -49 -49 -49s-48 21 -48 49c0 26 22 49 48 49zM202 672c26 0 48 -23 48 -49c0 -28 -20 -49 -48 -49s-49 21 -49 49
c0 26 23 49 49 49z" />
    <glyph glyph-name="igrave" unicode="&#xec;" horiz-adv-x="231" 
d="M37 0v19c27 1 37 21 37 64v287c0 41 -8 59 -39 62v15c42 11 78 33 109 65h18v-429c0 -43 9 -63 37 -64v-19h-162zM61 693l141 -146h-33l-161 100c-20 13 -30 27 -30 41c0 20 15 34 35 34c17 0 30 -11 48 -29z" />
    <glyph glyph-name="logicalnot" unicode="&#xac;" horiz-adv-x="833" 
d="M124 420h585v-245h-67v177h-518v68z" />
    <glyph glyph-name="minus" unicode="&#x2212;" horiz-adv-x="833" 
d="M124 333h585v-69h-585v69z" />
    <glyph glyph-name="mu" unicode="&#xb5;" horiz-adv-x="571" 
d="M81 95c-46 -198 -28 -300 -88 -300c-27 0 -43 16 -43 46c0 46 49 158 88 341l53 250h82l-49 -232c-7 -31 -9 -53 -9 -65c0 -46 28 -72 79 -72c65 0 99 36 115 111l55 258h84l-56 -260c-6 -28 -9 -49 -9 -62c0 -32 18 -49 50 -49c29 0 54 17 68 46c17 35 15 63 32 63
c6 0 11 -6 11 -14c0 -19 -8 -58 -24 -92c-25 -50 -59 -76 -105 -76c-52 0 -83 37 -83 102v6c-33 -73 -77 -108 -144 -108c-62 0 -99 37 -107 107z" />
    <glyph glyph-name="multiply" unicode="&#xd7;" horiz-adv-x="833" 
d="M191 575l229 -229l229 229l48 -48l-229 -229l229 -229l-48 -47l-229 228l-229 -228l-48 47l229 229l-229 229z" />
    <glyph glyph-name="ntilde" unicode="&#xf1;" horiz-adv-x="475" 
d="M32 0v19c27 1 37 21 37 64v269c0 41 -8 58 -39 61v15c42 11 79 33 109 65h16v-90c83 53 137 90 183 90c43 0 72 -33 72 -93v-317c0 -43 9 -63 37 -64v-19h-160v19c28 1 37 21 37 64v274c0 48 -9 67 -45 67c-26 0 -68 -17 -124 -49v-292c0 -43 9 -63 37 -64v-19h-160z
M359 692h26c-13 -67 -44 -100 -95 -100c-11 0 -23 2 -36 5l-53 14c-8 2 -18 3 -28 3c-22 0 -34 -14 -43 -44h-25c12 69 44 103 96 103c11 0 21 -1 31 -4l54 -14c11 -3 21 -4 27 -4c25 0 37 12 46 41z" />
    <glyph glyph-name="oacute" unicode="&#xf3;" horiz-adv-x="484" 
d="M242 -14c-119 0 -212 101 -212 254s92 253 212 253s212 -100 212 -253s-93 -254 -212 -254zM242 12c75 0 112 74 112 225c0 154 -35 231 -112 231c-75 0 -112 -76 -112 -226c0 -154 36 -230 112 -230zM357 647l-161 -100h-33l141 146c18 18 31 29 48 29
c20 0 35 -14 35 -34c0 -14 -10 -28 -30 -41z" />
    <glyph glyph-name="ocircumflex" unicode="&#xf4;" horiz-adv-x="484" 
d="M242 -14c-119 0 -212 101 -212 254s92 253 212 253s212 -100 212 -253s-93 -254 -212 -254zM242 12c75 0 112 74 112 225c0 154 -35 231 -112 231c-75 0 -112 -76 -112 -226c0 -154 36 -230 112 -230zM220 718h58l113 -171h-28l-114 103l-114 -103h-28z" />
    <glyph glyph-name="odieresis" unicode="&#xf6;" horiz-adv-x="484" 
d="M242 -14c-119 0 -212 101 -212 254s92 253 212 253s212 -100 212 -253s-93 -254 -212 -254zM242 12c75 0 112 74 112 225c0 154 -35 231 -112 231c-75 0 -112 -76 -112 -226c0 -154 36 -230 112 -230zM163 672c26 0 49 -23 49 -49c0 -28 -21 -49 -49 -49s-48 21 -48 49
c0 26 22 49 48 49zM335 672c26 0 48 -23 48 -49c0 -28 -20 -49 -48 -49s-49 21 -49 49c0 26 23 49 49 49z" />
    <glyph glyph-name="ograve" unicode="&#xf2;" horiz-adv-x="484" 
d="M242 -14c-119 0 -212 101 -212 254s92 253 212 253s212 -100 212 -253s-93 -254 -212 -254zM242 12c75 0 112 74 112 225c0 154 -35 231 -112 231c-75 0 -112 -76 -112 -226c0 -154 36 -230 112 -230zM194 693l141 -146h-33l-161 100c-20 13 -30 27 -30 41
c0 20 15 34 35 34c17 0 30 -11 48 -29z" />
    <glyph glyph-name="onehalf" unicode="&#xbd;" horiz-adv-x="861" 
d="M111 306v11c21 0 29 15 29 49v244c0 26 -14 38 -44 39v10c29 7 59 22 89 45h14v-338c0 -34 8 -49 30 -49v-11h-118zM180 0l469 711l31 -17l-468 -710zM531 0v11l15 20c49 66 100 102 131 130c45 42 67 79 67 130c0 59 -28 93 -68 93c-37 0 -52 -17 -54 -52
c-3 -31 -16 -47 -39 -47c-17 0 -29 12 -29 30c0 41 54 83 123 83c78 0 134 -48 134 -116c0 -28 -11 -51 -31 -75c-20 -23 -52 -43 -91 -68c-48 -31 -86 -60 -112 -94h134c44 0 68 9 81 40l12 -3l-22 -82h-251z" />
    <glyph glyph-name="onequarter" unicode="&#xbc;" horiz-adv-x="861" 
d="M111 306v11c21 0 29 15 29 49v244c0 26 -14 38 -44 39v10c29 7 59 22 89 45h14v-338c0 -34 8 -49 30 -49v-11h-118zM180 0l469 711l31 -17l-468 -710zM683 0v11c24 5 27 24 27 62v22h-177v15l193 286h44v-267h64v-34h-64v-22c0 -38 1 -57 26 -62v-11h-113zM710 129l1 210
l-138 -210h137z" />
    <glyph glyph-name="onesuperior" unicode="&#xb9;" horiz-adv-x="364" 
d="M116 278v11c22 1 31 17 31 53v261c0 29 -15 42 -47 42v12c31 6 62 22 94 48h15v-363c0 -36 8 -52 31 -53v-11h-124z" />
    <glyph glyph-name="otilde" unicode="&#xf5;" horiz-adv-x="484" 
d="M242 -14c-119 0 -212 101 -212 254s92 253 212 253s212 -100 212 -253s-93 -254 -212 -254zM242 12c75 0 112 74 112 225c0 154 -35 231 -112 231c-75 0 -112 -76 -112 -226c0 -154 36 -230 112 -230zM363 692h26c-13 -67 -44 -100 -95 -100c-11 0 -23 2 -36 5l-53 14
c-8 2 -18 3 -28 3c-22 0 -34 -14 -43 -44h-25c12 69 44 103 96 103c11 0 21 -1 31 -4l54 -14c11 -3 21 -4 27 -4c25 0 37 12 46 41z" />
    <glyph glyph-name="plusminus" unicode="&#xb1;" horiz-adv-x="833" 
d="M382 582h69v-166h258v-68h-258v-166h-69v166h-258v68h258v166zM124 83h585v-69h-585v69z" />
    <glyph glyph-name="registered" unicode="&#xae;" horiz-adv-x="822" 
d="M412 679c91 0 182 -38 247 -104c63 -64 99 -153 99 -247c0 -89 -37 -178 -106 -246c-65 -64 -149 -98 -246 -98c-88 0 -174 37 -240 102c-67 66 -102 151 -102 242c0 95 35 181 101 248c65 66 154 103 247 103zM412 637c-80 0 -158 -33 -215 -91
c-58 -59 -88 -134 -88 -218c0 -80 31 -154 89 -212c59 -59 132 -89 213 -89s156 31 213 89c58 59 89 135 89 212c0 84 -32 164 -88 220s-135 89 -213 89zM228 534h194c99 0 155 -42 155 -95c0 -56 -43 -84 -139 -101c61 -18 92 -47 105 -101c10 -40 2 -75 33 -75
c20 0 31 22 31 64h22v-9c0 -55 -28 -85 -78 -85c-32 0 -56 11 -66 30c-17 31 -7 70 -15 101c-12 47 -43 68 -96 68h-14v-120c0 -34 15 -45 58 -48v-22h-190v22c44 2 59 13 59 48v252c0 35 -15 46 -59 49v22zM360 352c14 -1 25 -1 31 -1c70 0 108 32 108 84
c0 45 -33 78 -90 78c-33 0 -49 -11 -49 -34v-127z" />
    <glyph glyph-name="scaron" unicode="&#x161;" horiz-adv-x="400" 
d="M30 52l33 98l17 -4c18 -84 73 -134 136 -134c50 0 86 37 86 82c0 52 -40 72 -111 105c-91 43 -144 67 -144 151c0 86 62 143 155 143c46 0 93 -18 140 -54l-31 -88l-16 4c-16 73 -56 112 -107 112c-46 0 -82 -33 -82 -76s34 -67 101 -96c97 -43 163 -68 163 -159
c0 -88 -66 -150 -170 -150c-53 0 -112 22 -170 66zM58 718h28l114 -103l114 103h28l-113 -171h-58z" />
    <glyph glyph-name="thorn" unicode="&#xfe;" 
d="M28 -220v19c27 1 37 21 37 64v732c0 41 -9 58 -40 61v15c42 11 79 33 109 65h19l-3 -333c43 60 93 90 153 90c93 0 162 -87 162 -240c0 -163 -90 -267 -192 -267c-48 0 -88 19 -123 59v-182c0 -43 9 -63 37 -64v-19h-159zM150 368v-163c0 -126 41 -192 110 -192
c78 0 115 73 115 218c0 132 -45 204 -119 204c-38 0 -74 -22 -106 -67z" />
    <glyph glyph-name="threequarters" unicode="&#xbe;" horiz-adv-x="861" 
d="M139 518c61 8 87 33 87 87c0 55 -24 84 -65 84c-36 0 -48 -17 -53 -49c-3 -24 -15 -36 -31 -36c-18 0 -31 13 -31 30c0 34 50 70 120 70c72 0 125 -43 125 -95c0 -38 -29 -67 -86 -87c65 -13 102 -52 102 -100c0 -72 -63 -125 -148 -125c-76 0 -128 38 -128 71
c0 16 13 28 28 28c20 0 31 -10 41 -31c16 -33 27 -53 65 -53c47 0 75 36 75 102c0 59 -26 92 -72 92c-9 0 -19 0 -28 -2zM180 0l469 711l31 -17l-468 -710zM683 0v11c24 5 27 24 27 62v22h-177v15l193 286h44v-267h64v-34h-64v-22c0 -38 1 -57 26 -62v-11h-113zM710 129
l1 210l-138 -210h137z" />
    <glyph glyph-name="threesuperior" unicode="&#xb3;" horiz-adv-x="364" 
d="M146 505c64 9 90 35 90 93c0 59 -24 90 -67 90c-38 0 -51 -18 -55 -52c-4 -26 -16 -38 -33 -38c-19 0 -33 13 -33 31c0 37 53 76 126 76c75 0 131 -47 131 -102c0 -41 -30 -72 -90 -93c67 -14 106 -57 106 -108c0 -77 -65 -134 -154 -134c-80 0 -134 41 -134 77
c0 17 13 29 28 29c22 0 33 -11 43 -32c17 -36 29 -57 69 -57c49 0 78 38 78 109c0 63 -27 99 -75 99c-10 0 -20 -1 -29 -3z" />
    <glyph glyph-name="trademark" unicode="&#x2122;" horiz-adv-x="822" 
d="M122 704h217l5 -89h-13c-5 51 -25 74 -66 74h-8v-207c0 -16 7 -25 20 -26l16 -1v-14h-124v14l15 1c13 1 21 10 21 26v207h-8c-42 0 -62 -22 -67 -74h-13zM381 704h93l67 -191l70 191h88v-12l-14 -1c-14 -1 -21 -10 -21 -26v-183c0 -16 7 -25 21 -26l14 -1v-14h-117v14
l15 1c13 1 21 10 21 26v189l-84 -231h-10l-84 232v-190c0 -16 8 -25 21 -26l16 -1v-14h-96v14l16 1c13 1 21 10 21 26v181c0 16 -8 25 -21 26l-16 2v13z" />
    <glyph glyph-name="twosuperior" unicode="&#xb2;" horiz-adv-x="364" 
d="M18 278v11l16 22c51 71 104 110 136 140c48 44 71 84 71 138c0 64 -30 100 -71 100c-39 0 -54 -17 -57 -56c-3 -33 -17 -50 -40 -50c-19 0 -31 14 -31 32c0 45 57 90 129 90c81 0 140 -52 140 -125c0 -30 -11 -55 -32 -81c-21 -24 -55 -45 -96 -72
c-50 -33 -90 -64 -117 -100h140c47 0 72 9 86 42l12 -3l-23 -88h-263z" />
    <glyph glyph-name="uacute" unicode="&#xfa;" horiz-adv-x="470" 
d="M319 0v77c-83 -56 -137 -91 -182 -91c-43 0 -72 34 -72 94v290c0 41 -9 59 -40 62v15c41 11 78 33 109 65h16v-388c0 -45 11 -64 47 -64c28 0 70 15 122 46v247c0 47 -6 71 -38 78v17c38 12 73 34 108 64h16v-408c0 -54 9 -80 46 -85v-19h-132zM343 647l-161 -100h-33
l141 146c18 18 31 29 48 29c20 0 35 -14 35 -34c0 -14 -10 -28 -30 -41z" />
    <glyph glyph-name="ucircumflex" unicode="&#xfb;" horiz-adv-x="470" 
d="M319 0v77c-83 -56 -137 -91 -182 -91c-43 0 -72 34 -72 94v290c0 41 -9 59 -40 62v15c41 11 78 33 109 65h16v-388c0 -45 11 -64 47 -64c28 0 70 15 122 46v247c0 47 -6 71 -38 78v17c38 12 73 34 108 64h16v-408c0 -54 9 -80 46 -85v-19h-132zM206 718h58l113 -171h-28
l-114 103l-114 -103h-28z" />
    <glyph glyph-name="udieresis" unicode="&#xfc;" horiz-adv-x="470" 
d="M319 0v77c-83 -56 -137 -91 -182 -91c-43 0 -72 34 -72 94v290c0 41 -9 59 -40 62v15c41 11 78 33 109 65h16v-388c0 -45 11 -64 47 -64c28 0 70 15 122 46v247c0 47 -6 71 -38 78v17c38 12 73 34 108 64h16v-408c0 -54 9 -80 46 -85v-19h-132zM149 672
c26 0 49 -23 49 -49c0 -28 -21 -49 -49 -49s-48 21 -48 49c0 26 22 49 48 49zM321 672c26 0 48 -23 48 -49c0 -28 -20 -49 -48 -49s-49 21 -49 49c0 26 23 49 49 49z" />
    <glyph glyph-name="ugrave" unicode="&#xf9;" horiz-adv-x="470" 
d="M319 0v77c-83 -56 -137 -91 -182 -91c-43 0 -72 34 -72 94v290c0 41 -9 59 -40 62v15c41 11 78 33 109 65h16v-388c0 -45 11 -64 47 -64c28 0 70 15 122 46v247c0 47 -6 71 -38 78v17c38 12 73 34 108 64h16v-408c0 -54 9 -80 46 -85v-19h-132zM180 693l141 -146h-33
l-161 100c-20 13 -30 27 -30 41c0 20 15 34 35 34c17 0 30 -11 48 -29z" />
    <glyph glyph-name="yacute" unicode="&#xfd;" horiz-adv-x="412" 
d="M183 0l-133 392c-14 43 -32 66 -50 69v18h160v-18c-19 -4 -29 -15 -29 -32c0 -3 1 -6 2 -9l98 -307l79 244c7 20 9 39 9 54c0 28 -13 47 -35 50v18h137v-18c-30 -10 -56 -55 -84 -133l-134 -378c-40 -113 -72 -170 -130 -170c-36 0 -61 21 -61 49c0 26 20 49 43 49
c18 0 35 -15 55 -15c26 0 48 38 68 117zM314 647l-161 -100h-33l141 146c18 18 31 29 48 29c20 0 35 -14 35 -34c0 -14 -10 -28 -30 -41z" />
    <glyph glyph-name="ydieresis" unicode="&#xff;" horiz-adv-x="412" 
d="M183 0l-133 392c-14 43 -32 66 -50 69v18h160v-18c-19 -4 -29 -15 -29 -32c0 -3 1 -6 2 -9l98 -307l79 244c7 20 9 39 9 54c0 28 -13 47 -35 50v18h137v-18c-30 -10 -56 -55 -84 -133l-134 -378c-40 -113 -72 -170 -130 -170c-36 0 -61 21 -61 49c0 26 20 49 43 49
c18 0 35 -15 55 -15c26 0 48 38 68 117zM120 672c26 0 49 -23 49 -49c0 -28 -21 -49 -49 -49s-48 21 -48 49c0 26 22 49 48 49zM292 672c26 0 48 -23 48 -49c0 -28 -20 -49 -48 -49s-49 21 -49 49c0 26 23 49 49 49z" />
    <glyph glyph-name="zcaron" unicode="&#x17e;" horiz-adv-x="407" 
d="M0 0l295 447h-52c-82 0 -132 -19 -181 -88l-15 4l29 116h328v-19l-282 -427c14 -1 24 -1 32 -1c107 0 174 13 234 101l19 -6l-37 -127h-370zM62 718h28l114 -103l114 103h28l-113 -171h-58z" />
    </font>
</defs>
</svg>
